<svg width="24" height="24" viewBox="0 0 24 24" fill="none" xmlns="http://www.w3.org/2000/svg">
<path d="M18.6899 5.32061C18.5917 5.22221 18.475 5.14413 18.3465 5.09086C18.218 5.03759 18.0803 5.01017 17.9413 5.01017C17.8022 5.01017 17.6645 5.03759 17.5361 5.09086C17.4076 5.14413 17.2909 5.22221 17.1927 5.32061L12 10.501L6.80736 5.31C6.70905 5.21172 6.59234 5.13376 6.46388 5.08057C6.33543 5.02738 6.19776 5 6.05873 5C5.91969 5 5.78202 5.02738 5.65357 5.08057C5.52512 5.13376 5.4084 5.21172 5.31009 5.31C5.21178 5.40829 5.1338 5.52497 5.08059 5.65337C5.02739 5.78178 5 5.91941 5 6.0584C5 6.1974 5.02739 6.33503 5.08059 6.46345C5.1338 6.59185 5.21178 6.70853 5.31009 6.80681L10.5028 11.9979L5.31009 17.1889C5.21178 17.2872 5.1338 17.4039 5.08059 17.5323C5.02739 17.6607 5 17.7984 5 17.9373C5 18.0764 5.02739 18.214 5.08059 18.3424C5.1338 18.4708 5.21178 18.5874 5.31009 18.6857C5.4084 18.784 5.52512 18.862 5.65357 18.9151C5.78202 18.9684 5.91969 18.9957 6.05873 18.9957C6.19776 18.9957 6.33543 18.9684 6.46388 18.9151C6.59234 18.862 6.70905 18.784 6.80736 18.6857L12 13.4947L17.1927 18.6857C17.291 18.784 17.4077 18.862 17.5361 18.9151C17.6646 18.9684 17.8022 18.9957 17.9413 18.9957C18.0803 18.9957 18.218 18.9684 18.3464 18.9151C18.4749 18.862 18.5916 18.784 18.6899 18.6857C18.7883 18.5874 18.8662 18.4708 18.9194 18.3424C18.9726 18.214 19 18.0764 19 17.9373C19 17.7984 18.9726 17.6607 18.9194 17.5323C18.8662 17.4039 18.7883 17.2872 18.6899 17.1889L13.4973 11.9979L18.6899 6.80681C19.0934 6.40341 19.0934 5.72401 18.6899 5.32061Z" fill="#0A0A0A"/>
</svg>
