<svg width="17" height="16" viewBox="0 0 17 16" fill="none" xmlns="http://www.w3.org/2000/svg">
<path d="M10.5 14L6.5 12.6L3.4 13.8C3.17778 13.8889 2.97222 13.8638 2.78333 13.7247C2.59444 13.5856 2.5 13.3996 2.5 13.1667V3.83333C2.5 3.68889 2.54178 3.56111 2.62533 3.45C2.70889 3.33889 2.82267 3.25556 2.96667 3.2L6.5 2L10.5 3.4L13.6 2.2C13.8222 2.11111 14.0278 2.13622 14.2167 2.27533C14.4056 2.41444 14.5 2.60044 14.5 2.83333V12.1667C14.5 12.3111 14.4582 12.4389 14.3747 12.55C14.2911 12.6611 14.1773 12.7444 14.0333 12.8L10.5 14ZM9.83333 12.3667V4.56667L7.16667 3.63333V11.4333L9.83333 12.3667Z" fill="#F0F1F3"/>
</svg>
