<svg width="20" height="20" viewBox="0 0 20 20" fill="none" xmlns="http://www.w3.org/2000/svg">
<path d="M10.001 14.168C9.78823 14.1669 9.5784 14.1185 9.38669 14.0262C9.19499 13.934 9.02622 13.8002 8.89264 13.6346L5.38431 9.38464C5.1793 9.12878 5.05029 8.82047 5.01199 8.49486C4.97368 8.16925 5.02761 7.83942 5.16764 7.54297C5.28121 7.28532 5.46653 7.06581 5.70149 6.91065C5.93644 6.7555 6.2111 6.67125 6.49264 6.66797H13.5093C13.7909 6.67125 14.0655 6.7555 14.3005 6.91065C14.5354 7.06581 14.7207 7.28532 14.8343 7.54297C14.9743 7.83942 15.0283 8.16925 14.99 8.49486C14.9517 8.82047 14.8226 9.12878 14.6176 9.38464L11.1093 13.6346C10.9757 13.8002 10.807 13.934 10.6153 14.0262C10.4236 14.1185 10.2137 14.1669 10.001 14.168Z" fill="#F0F0F0"/>
</svg>
