<svg width="20" height="20" viewBox="0 0 20 20" fill="none" xmlns="http://www.w3.org/2000/svg">
<g clip-path="url(#clip0_1386_11113)">
<path d="M18.75 6.25V8.75H17.5V18.75C17.5 18.9258 17.4674 19.0885 17.4023 19.2383C17.3372 19.388 17.2493 19.5182 17.1387 19.6289C17.028 19.7396 16.8945 19.8307 16.7383 19.9023C16.582 19.974 16.4193 20.0065 16.25 20H15C14.8242 20 14.6615 19.9674 14.5117 19.9023C14.362 19.8372 14.2318 19.7493 14.1211 19.6387C14.0104 19.528 13.9193 19.3945 13.8477 19.2383C13.776 19.082 13.7435 18.9193 13.75 18.75H5C5 18.9258 4.96745 19.0885 4.90234 19.2383C4.83724 19.388 4.74935 19.5182 4.63867 19.6289C4.52799 19.7396 4.39453 19.8307 4.23828 19.9023C4.08203 19.974 3.91927 20.0065 3.75 20H2.5C2.32422 20 2.16146 19.9674 2.01172 19.9023C1.86198 19.8372 1.73177 19.7493 1.62109 19.6387C1.51042 19.528 1.41927 19.3945 1.34766 19.2383C1.27604 19.082 1.24349 18.9193 1.25 18.75V8.75H0V6.25H1.25V3.125C1.25 2.86458 1.29883 2.62044 1.39648 2.39258C1.49414 2.16471 1.6276 1.96615 1.79688 1.79688C1.96615 1.6276 2.16471 1.49414 2.39258 1.39648C2.62044 1.29883 2.86458 1.25 3.125 1.25H15.625C15.8854 1.25 16.1296 1.29883 16.3574 1.39648C16.5853 1.49414 16.7839 1.6276 16.9531 1.79688C17.1224 1.96615 17.2559 2.16471 17.3535 2.39258C17.4512 2.62044 17.5 2.86458 17.5 3.125V6.25H18.75ZM2.5 11.25H8.75V6.25H2.5V11.25ZM5 14.375C5 14.2057 4.93815 14.0592 4.81445 13.9355C4.69076 13.8118 4.54427 13.75 4.375 13.75C4.20573 13.75 4.05924 13.8118 3.93555 13.9355C3.81185 14.0592 3.75 14.2057 3.75 14.375V15H5V14.375ZM16.25 16.25H2.5V17.5H16.25V16.25ZM15 15V14.375C15 14.2057 14.9382 14.0592 14.8145 13.9355C14.6908 13.8118 14.5443 13.75 14.375 13.75C14.2057 13.75 14.0592 13.8118 13.9355 13.9355C13.8118 14.0592 13.75 14.2057 13.75 14.375V15H15ZM16.25 6.25H10V11.25H16.25V6.25Z" fill="#F0F0F0"/>
</g>
<defs>
<clipPath id="clip0_1386_11113">
<rect width="20" height="20" fill="white"/>
</clipPath>
</defs>
</svg>
