<svg width="34" height="47" viewBox="0 0 34 47" fill="none" xmlns="http://www.w3.org/2000/svg">
<path d="M34 17.625C34 25.6481 23.6406 39.9316 19.0984 45.825C18.0094 47.2295 15.9906 47.2295 14.9016 45.825C10.2797 39.9316 0 25.6481 0 17.625C0 7.89086 7.61104 0 17 0C26.3854 0 34 7.89086 34 17.625Z" fill="#D11515"/>
<path d="M15.8844 8.23051C13.2653 10.9862 12.6042 15.2202 14.5989 18.6784C16.5939 22.1372 20.5885 23.6817 24.2828 22.7886L15.8843 8.23047L15.8844 8.23051ZM24.9785 11.4397C24.775 11.4449 24.5761 11.5011 24.4 11.6033C23.9585 11.8584 23.7352 12.3468 23.7969 12.8227L20.0348 13.9653L21.3958 16.3225L24.2645 13.6345C24.6455 13.9276 25.1807 13.9793 25.623 13.7236C26.2087 13.3852 26.4089 12.6368 26.0711 12.0513C25.8389 11.6487 25.4127 11.4282 24.9785 11.4397ZM12.7959 15.6389L11.7547 15.822L12.1722 18.1865L10.5291 19.7246L11.2591 20.9795L13.5504 20.2836L13.6736 20.4461L9.08984 26.2627H12.1502L15.4839 25.4217L17.542 26.2627H19.5171L19.2412 24.4744L19.2729 24.4658L19.235 24.4414L19.0495 23.2414C18.7831 23.149 18.5209 23.0435 18.2634 22.9277L18.4135 23.903L16.4213 22.5969L17.1538 22.3393C16.8979 22.1804 16.6498 22.0093 16.4103 21.8266L15.6534 22.0928L14.1056 21.0771L14.3327 20.7891L14.9247 20.4118C14.5656 19.9848 14.2449 19.5269 13.9665 19.0434C13.3415 17.9598 12.9576 16.8052 12.7958 15.6389L12.7959 15.6389ZM13.6516 21.6534L14.7881 22.3979L12.4029 23.2377L13.6517 21.6534H13.6516ZM15.5548 22.9021L17.4822 24.1655L15.5377 24.6562L13.2391 23.7175L15.5547 22.902L15.5548 22.9021ZM11.8511 23.9385L12.0745 24.0288L14.345 24.9565L10.2313 25.9942L11.8511 23.9385ZM18.5296 24.6538L18.7322 25.96L16.6765 25.1213L18.4661 24.6696L18.5296 24.6538Z" fill="white"/>
</svg>
