<svg width="20" height="20" viewBox="0 0 20 20" fill="none" xmlns="http://www.w3.org/2000/svg">
<path d="M10 15C10.5178 15 10.9375 14.5803 10.9375 14.0625C10.9375 13.5447 10.5178 13.125 10 13.125C9.48223 13.125 9.0625 13.5447 9.0625 14.0625C9.0625 14.5803 9.48223 15 10 15Z" fill="#F0F0F0"/>
<path d="M10.625 11.875H9.375V9.375H10.625C11.3144 9.375 11.875 8.81437 11.875 8.125C11.875 7.43562 11.3144 6.875 10.625 6.875H9.375C8.68562 6.875 8.125 7.43562 8.125 8.125V8.4375H6.875V8.125C6.875 6.74625 7.99625 5.625 9.375 5.625H10.625C12.0037 5.625 13.125 6.74625 13.125 8.125C13.125 9.50375 12.0037 10.625 10.625 10.625V11.875Z" fill="#F0F0F0"/>
<path d="M18.3694 9.07938L10.9206 1.63063C10.7997 1.50977 10.6562 1.41394 10.4982 1.34863C10.3402 1.28332 10.1709 1.2498 10 1.25C9.66687 1.25 9.33313 1.37688 9.07938 1.63063L1.63062 9.07938C1.37687 9.33313 1.25 9.66625 1.25 10C1.25 10.3338 1.37687 10.6669 1.63062 10.9206L9.07875 18.3688C9.33313 18.6231 9.66687 18.75 10 18.75C10.3331 18.75 10.6669 18.6231 10.9206 18.3694L18.3687 10.9213C18.6231 10.6669 18.75 10.3338 18.75 10C18.75 9.66625 18.6231 9.33313 18.3694 9.07938ZM10 17.5225L2.47812 10L10 2.4775L17.5225 10L10 17.5225Z" fill="#F0F0F0"/>
</svg>
