<svg width="24" height="24" viewBox="0 0 24 24" fill="none" xmlns="http://www.w3.org/2000/svg">
<mask id="mask0_1690_10935" style="mask-type:luminance" maskUnits="userSpaceOnUse" x="2" y="2" width="20" height="20">
<path d="M14.1221 5.63574L5.63679 14.121C5.24627 14.5115 5.24627 15.1447 5.63679 15.5352L8.46522 18.3637C8.85575 18.7542 9.48891 18.7542 9.87944 18.3637L18.3647 9.87838C18.7552 9.48785 18.7552 8.85469 18.3647 8.46416L15.5363 5.63574C15.1458 5.24521 14.5126 5.24521 14.1221 5.63574Z" fill="white" stroke="white" stroke-width="2" stroke-linejoin="round"/>
<path d="M3.51562 20.4856L7.05063 16.9506M16.9511 7.05063L20.4866 3.51562" stroke="white" stroke-width="2" stroke-linecap="round" stroke-linejoin="round"/>
<path d="M7.40625 12.3558L11.6487 16.5983M9.88125 9.88075L14.1238 14.1238M12.3558 7.40625L16.5983 11.6487" stroke="black" stroke-width="2" stroke-linecap="round" stroke-linejoin="round"/>
<path d="M6.34375 13.4148L13.4148 6.34375M10.5863 17.6572L17.6572 10.5863" stroke="white" stroke-width="2" stroke-linecap="round" stroke-linejoin="round"/>
</mask>
<g mask="url(#mask0_1690_10935)">
<path d="M0 0H24V24H0V0Z" fill="#8AC63F"/>
</g>
</svg>
