<svg width="17" height="17" viewBox="0 0 17 17" fill="none" xmlns="http://www.w3.org/2000/svg">
<path d="M0.6875 2.494C0.6875 1.393 1.5825 0.5 2.6815 0.5H14.6935C15.7945 0.5 16.6875 1.395 16.6875 2.494V14.506C16.6872 15.0348 16.4771 15.5418 16.1032 15.9157C15.7293 16.2896 15.2223 16.4997 14.6935 16.5H2.6815C2.15274 16.4997 1.64571 16.2896 1.27182 15.9157C0.897932 15.5418 0.687765 15.0348 0.6875 14.506L0.6875 2.494ZM1.6875 2.494V14.506C1.6875 15.054 2.1335 15.5 2.6815 15.5H14.6935C14.957 15.4997 15.2097 15.3949 15.3961 15.2086C15.5824 15.0222 15.6872 14.7695 15.6875 14.506V2.494C15.6872 2.23046 15.5824 1.97778 15.3961 1.79143C15.2097 1.60507 14.957 1.50026 14.6935 1.5H2.6815C2.41796 1.50026 2.16528 1.60507 1.97893 1.79143C1.79257 1.97778 1.68776 2.23046 1.6875 2.494ZM1.6875 4.5H15.6875V5.5H1.6875V4.5ZM3.1875 3.5C3.05489 3.5 2.92771 3.44732 2.83395 3.35355C2.74018 3.25979 2.6875 3.13261 2.6875 3C2.6875 2.86739 2.74018 2.74021 2.83395 2.64645C2.92771 2.55268 3.05489 2.5 3.1875 2.5H4.1875C4.32011 2.5 4.44729 2.55268 4.54105 2.64645C4.63482 2.74021 4.6875 2.86739 4.6875 3C4.6875 3.13261 4.63482 3.25979 4.54105 3.35355C4.44729 3.44732 4.32011 3.5 4.1875 3.5H3.1875ZM6.1875 3.5C6.05489 3.5 5.92771 3.44732 5.83395 3.35355C5.74018 3.25979 5.6875 3.13261 5.6875 3C5.6875 2.86739 5.74018 2.74021 5.83395 2.64645C5.92771 2.55268 6.05489 2.5 6.1875 2.5H7.1875C7.32011 2.5 7.44729 2.55268 7.54105 2.64645C7.63482 2.74021 7.6875 2.86739 7.6875 3C7.6875 3.13261 7.63482 3.25979 7.54105 3.35355C7.44729 3.44732 7.32011 3.5 7.1875 3.5H6.1875ZM11.1345 9.606C11.3004 9.68914 11.4399 9.81679 11.5373 9.97468C11.6348 10.1326 11.6864 10.3145 11.6864 10.5C11.6864 10.6855 11.6348 10.8674 11.5373 11.0253C11.4399 11.1832 11.3004 11.3109 11.1345 11.394L8.1345 13.394C7.98208 13.4702 7.81272 13.5061 7.64251 13.4985C7.47229 13.4908 7.30685 13.4398 7.16189 13.3502C7.01694 13.2606 6.89727 13.1355 6.81424 12.9867C6.73122 12.8379 6.68759 12.6704 6.6875 12.5V8.5C6.68759 8.32961 6.73122 8.16207 6.81424 8.01327C6.89727 7.86448 7.01694 7.73936 7.16189 7.64981C7.30685 7.56025 7.47229 7.50921 7.64251 7.50155C7.81272 7.49388 7.98208 7.52984 8.1345 7.606L11.1345 9.606ZM10.6875 10.5L7.6875 8.5V12.5L10.6875 10.5Z" fill="#0D4667"/>
</svg>
