<svg width="20" height="20" viewBox="0 0 20 20" fill="none" xmlns="http://www.w3.org/2000/svg">
<path d="M6.96563 8.33333L9.32813 6.66667H12.2381L11.3281 4.16667H9.16146V2.5H12.4948L13.4048 5H16.6615V7.5H14.3148L15.5281 10.835C16.4488 10.8643 17.3264 11.2313 17.9938 11.8662C18.6611 12.5011 19.0714 13.3594 19.1465 14.2775C19.2216 15.1955 18.9561 16.1091 18.4008 16.8439C17.8455 17.5788 17.0391 18.0836 16.1355 18.2621C15.2318 18.4405 14.2941 18.2801 13.5011 17.8115C12.7082 17.3429 12.1154 16.5988 11.8358 15.7212C11.5563 14.8435 11.6095 13.8937 11.9854 13.0528C12.3613 12.2119 13.0336 11.5387 13.874 11.1617L12.844 8.33333H12.0548L10.7365 13.225L8.29896 14.1158C8.3184 14.2692 8.32813 14.425 8.32813 14.5833C8.32792 15.2708 8.13875 15.9449 7.78128 16.5321C7.42382 17.1193 6.91183 17.597 6.30125 17.9129C5.69067 18.2287 5.00502 18.3707 4.31921 18.3233C3.6334 18.2758 2.97384 18.0407 2.4126 17.6437C1.85136 17.2468 1.41005 16.7031 1.13689 16.0723C0.863724 15.4414 0.769228 14.7476 0.863724 14.0667C0.958221 13.3858 1.23807 12.744 1.6727 12.2113C2.10732 11.6787 2.68 11.2758 3.32813 11.0467V10H1.66146V8.33333H6.96563ZM4.57813 16.6667C5.13066 16.6667 5.66056 16.4472 6.05127 16.0565C6.44197 15.6658 6.66146 15.1359 6.66146 14.5833C6.66146 14.0308 6.44197 13.5009 6.05127 13.1102C5.66056 12.7195 5.13066 12.5 4.57813 12.5C4.02559 12.5 3.49569 12.7195 3.10499 13.1102C2.71429 13.5009 2.49479 14.0308 2.49479 14.5833C2.49479 15.1359 2.71429 15.6658 3.10499 16.0565C3.49569 16.4472 4.02559 16.6667 4.57813 16.6667ZM15.4115 16.6667C15.964 16.6667 16.4939 16.4472 16.8846 16.0565C17.2753 15.6658 17.4948 15.1359 17.4948 14.5833C17.4948 14.0308 17.2753 13.5009 16.8846 13.1102C16.4939 12.7195 15.964 12.5 15.4115 12.5C14.8589 12.5 14.329 12.7195 13.9383 13.1102C13.5476 13.5009 13.3281 14.0308 13.3281 14.5833C13.3281 15.1359 13.5476 15.6658 13.9383 16.0565C14.329 16.4472 14.8589 16.6667 15.4115 16.6667Z" fill="#F0F0F0"/>
</svg>
