<svg width="20" height="20" viewBox="0 0 20 20" fill="none" xmlns="http://www.w3.org/2000/svg">
<path d="M9.0902 9.09304V10.9112H8.18111V9.09304H9.0902ZM5.45384 1.82031H14.5447V2.7294H15.4538V16.3658H17.272V18.1839H2.72656V16.3658H4.54474V2.7294H5.45384V1.82031ZM6.36293 3.63849V16.3658H9.99929V3.63849H6.36293ZM11.8175 3.63849V4.54759H12.7266V3.63849H11.8175ZM12.7266 4.54759V5.45668H13.6357V4.54759H12.7266ZM12.7266 5.45668H11.8175V6.36577H12.7266V5.45668ZM12.7266 6.36577V7.27486H13.6357V6.36577H12.7266ZM12.7266 7.27486H11.8175V8.18395H12.7266V7.27486ZM12.7266 8.18395V9.09304H13.6357V8.18395H12.7266ZM12.7266 9.09304H11.8175V10.0021H12.7266V9.09304ZM12.7266 10.0021V10.9112H13.6357V10.0021H12.7266ZM12.7266 10.9112H11.8175V11.8203H12.7266V10.9112ZM12.7266 11.8203V12.7294H13.6357V11.8203H12.7266ZM12.7266 12.7294H11.8175V13.6385H12.7266V12.7294ZM12.7266 13.6385V14.5476H13.6357V13.6385H12.7266ZM12.7266 14.5476H11.8175V15.4567H12.7266V14.5476ZM12.7266 15.4567V16.3658H13.6357V15.4567H12.7266Z" fill="#8AC63F"/>
</svg>
