<svg width="34" height="47" viewBox="0 0 34 47" fill="none" xmlns="http://www.w3.org/2000/svg">
<path d="M34 17.625C34 25.648 23.6406 39.9316 19.0984 45.825C18.0094 47.2295 15.9906 47.2295 14.9016 45.825C10.2797 39.9316 0 25.648 0 17.625C0 7.89086 7.61104 0 17 0C26.3854 0 34 7.89086 34 17.625Z" fill="#FE3232"/>
<path d="M24.7096 26.25C24.868 26.25 25.0204 26.3102 25.1361 26.4183C25.2518 26.5264 25.3222 26.6744 25.333 26.8324C25.3438 26.9904 25.2942 27.1466 25.1943 27.2694C25.0943 27.3923 24.9515 27.4726 24.7946 27.4942L24.7096 27.5H9.29297C9.13462 27.5 8.98218 27.4398 8.86648 27.3317C8.75077 27.2236 8.68041 27.0756 8.66961 26.9176C8.65882 26.7596 8.7084 26.6034 8.80833 26.4806C8.90826 26.3577 9.05109 26.2774 9.20797 26.2558L9.29297 26.25H24.7096ZM23.4555 12.5C23.9528 12.5 24.4297 12.6975 24.7813 13.0492C25.1329 13.4008 25.3305 13.8777 25.3305 14.375V22.2958C25.3305 22.7931 25.1329 23.27 24.7813 23.6217C24.4297 23.9733 23.9528 24.1708 23.4555 24.1708H18.0213C17.9727 24.4054 17.8447 24.6161 17.6589 24.7673C17.4731 24.9186 17.2409 25.0011 17.0013 25.0011C16.7617 25.0011 16.5295 24.9186 16.3437 24.7673C16.1579 24.6161 16.0299 24.4054 15.9813 24.1708H10.543C10.0457 24.1708 9.56877 23.9733 9.21714 23.6217C8.86551 23.27 8.66797 22.7931 8.66797 22.2958V14.375C8.66797 13.8777 8.86551 13.4008 9.21714 13.0492C9.56877 12.6975 10.0457 12.5 10.543 12.5H23.4555ZM21.3763 20.4167H12.6263L12.5413 20.4225C12.3917 20.4431 12.2546 20.5171 12.1554 20.6309C12.0562 20.7448 12.0015 20.8907 12.0015 21.0417C12.0015 21.1927 12.0562 21.3386 12.1554 21.4524C12.2546 21.5662 12.3917 21.6403 12.5413 21.6608L12.6263 21.6667H21.3763L21.4613 21.6608C21.6109 21.6403 21.748 21.5662 21.8472 21.4524C21.9464 21.3386 22.0011 21.1927 22.0011 21.0417C22.0011 20.8907 21.9464 20.7448 21.8472 20.6309C21.748 20.5171 21.6109 20.4431 21.4613 20.4225L21.3763 20.4167ZM20.7513 17.5C20.5303 17.5 20.3183 17.5878 20.162 17.7441C20.0058 17.9004 19.918 18.1123 19.918 18.3333C19.918 18.5543 20.0058 18.7663 20.162 18.9226C20.3183 19.0789 20.5303 19.1667 20.7513 19.1667C20.9723 19.1667 21.1843 19.0789 21.3406 18.9226C21.4968 18.7663 21.5846 18.5543 21.5846 18.3333C21.5846 18.1123 21.4968 17.9004 21.3406 17.7441C21.1843 17.5878 20.9723 17.5 20.7513 17.5ZM15.7555 17.5C15.5345 17.5 15.3225 17.5878 15.1662 17.7441C15.0099 17.9004 14.9221 18.1123 14.9221 18.3333C14.9221 18.5543 15.0099 18.7663 15.1662 18.9226C15.3225 19.0789 15.5345 19.1667 15.7555 19.1667C15.9765 19.1667 16.1884 19.0789 16.3447 18.9226C16.501 18.7663 16.5888 18.5543 16.5888 18.3333C16.5888 18.1123 16.501 17.9004 16.3447 17.7441C16.1884 17.5878 15.9765 17.5 15.7555 17.5ZM13.2555 17.5C13.0345 17.5 12.8225 17.5878 12.6662 17.7441C12.5099 17.9004 12.4221 18.1123 12.4221 18.3333C12.4221 18.5543 12.5099 18.7663 12.6662 18.9226C12.8225 19.0789 13.0345 19.1667 13.2555 19.1667C13.4765 19.1667 13.6884 19.0789 13.8447 18.9226C14.001 18.7663 14.0888 18.5543 14.0888 18.3333C14.0888 18.1123 14.001 17.9004 13.8447 17.7441C13.6884 17.5878 13.4765 17.5 13.2555 17.5ZM18.2555 17.5C18.0345 17.5 17.8225 17.5878 17.6662 17.7441C17.5099 17.9004 17.4221 18.1123 17.4221 18.3333C17.4221 18.5543 17.5099 18.7663 17.6662 18.9226C17.8225 19.0789 18.0345 19.1667 18.2555 19.1667C18.4765 19.1667 18.6884 19.0789 18.8447 18.9226C19.001 18.7663 19.0888 18.5543 19.0888 18.3333C19.0888 18.1123 19.001 17.9004 18.8447 17.7441C18.6884 17.5878 18.4765 17.5 18.2555 17.5ZM12.0013 15C11.7803 15 11.5683 15.0878 11.412 15.2441C11.2558 15.4004 11.168 15.6123 11.168 15.8333C11.168 16.0543 11.2558 16.2663 11.412 16.4226C11.5683 16.5789 11.7803 16.6667 12.0013 16.6667C12.2223 16.6667 12.4343 16.5789 12.5906 16.4226C12.7468 16.2663 12.8346 16.0543 12.8346 15.8333C12.8346 15.6123 12.7468 15.4004 12.5906 15.2441C12.4343 15.0878 12.2223 15 12.0013 15ZM14.4971 15C14.2761 15 14.0642 15.0878 13.9079 15.2441C13.7516 15.4004 13.6638 15.6123 13.6638 15.8333C13.6638 16.0543 13.7516 16.2663 13.9079 16.4226C14.0642 16.5789 14.2761 16.6667 14.4971 16.6667C14.7181 16.6667 14.9301 16.5789 15.0864 16.4226C15.2427 16.2663 15.3305 16.0543 15.3305 15.8333C15.3305 15.6123 15.2427 15.4004 15.0864 15.2441C14.9301 15.0878 14.7181 15 14.4971 15ZM16.9971 15C16.7761 15 16.5642 15.0878 16.4079 15.2441C16.2516 15.4004 16.1638 15.6123 16.1638 15.8333C16.1638 16.0543 16.2516 16.2663 16.4079 16.4226C16.5642 16.5789 16.7761 16.6667 16.9971 16.6667C17.2181 16.6667 17.4301 16.5789 17.5864 16.4226C17.7427 16.2663 17.8305 16.0543 17.8305 15.8333C17.8305 15.6123 17.7427 15.4004 17.5864 15.2441C17.4301 15.0878 17.2181 15 16.9971 15ZM19.4971 15C19.2761 15 19.0642 15.0878 18.9079 15.2441C18.7516 15.4004 18.6638 15.6123 18.6638 15.8333C18.6638 16.0543 18.7516 16.2663 18.9079 16.4226C19.0642 16.5789 19.2761 16.6667 19.4971 16.6667C19.7181 16.6667 19.9301 16.5789 20.0864 16.4226C20.2427 16.2663 20.3305 16.0543 20.3305 15.8333C20.3305 15.6123 20.2427 15.4004 20.0864 15.2441C19.9301 15.0878 19.7181 15 19.4971 15ZM21.9971 15C21.7761 15 21.5642 15.0878 21.4079 15.2441C21.2516 15.4004 21.1638 15.6123 21.1638 15.8333C21.1638 16.0543 21.2516 16.2663 21.4079 16.4226C21.5642 16.5789 21.7761 16.6667 21.9971 16.6667C22.2181 16.6667 22.4301 16.5789 22.5864 16.4226C22.7427 16.2663 22.8305 16.0543 22.8305 15.8333C22.8305 15.6123 22.7427 15.4004 22.5864 15.2441C22.4301 15.0878 22.2181 15 21.9971 15Z" fill="white"/>
</svg>
