<svg width="20" height="20" viewBox="0 0 20 20" fill="none" xmlns="http://www.w3.org/2000/svg">
<path d="M5.82812 17.5C5.13368 17.5 4.5434 17.2569 4.05729 16.7708C3.57118 16.2847 3.32812 15.6944 3.32812 15H0.828125V9.16667H9.99479V4.16667H13.3281V2.5H15.8281V4.16667H17.474L19.1615 9.14583V15H16.6615C16.6615 15.6944 16.4184 16.2847 15.9323 16.7708C15.4462 17.2569 14.8559 17.5 14.1615 17.5C13.467 17.5 12.8767 17.2569 12.3906 16.7708C11.9045 16.2847 11.6615 15.6944 11.6615 15H8.32813C8.32813 15.6944 8.08507 16.2847 7.59896 16.7708C7.11285 17.2569 6.52257 17.5 5.82812 17.5ZM5.82812 15.8333C6.06424 15.8333 6.26229 15.7533 6.42229 15.5933C6.58229 15.4333 6.66201 15.2356 6.66146 15C6.6609 14.7644 6.5809 14.5667 6.42146 14.4067C6.26201 14.2467 6.06424 14.1667 5.82812 14.1667C5.59201 14.1667 5.39424 14.2467 5.23479 14.4067C5.07535 14.5667 4.99535 14.7644 4.99479 15C4.99424 15.2356 5.07424 15.4336 5.23479 15.5942C5.39535 15.7547 5.59313 15.8344 5.82812 15.8333ZM14.1615 15.8333C14.3976 15.8333 14.5956 15.7533 14.7556 15.5933C14.9156 15.4333 14.9953 15.2356 14.9948 15C14.9942 14.7644 14.9142 14.5667 14.7548 14.4067C14.5953 14.2467 14.3976 14.1667 14.1615 14.1667C13.9253 14.1667 13.7276 14.2467 13.5681 14.4067C13.4087 14.5667 13.3287 14.7644 13.3281 15C13.3276 15.2356 13.4076 15.4336 13.5681 15.5942C13.7287 15.7547 13.9265 15.8344 14.1615 15.8333ZM11.6615 9.16667H17.4115L16.2865 5.83333H11.6615V9.16667ZM0.828125 8.33333V7.08333H1.66146V5.41667H0.828125V4.16667H9.16146V5.41667H8.32813V7.08333H9.16146V8.33333H0.828125ZM2.91146 7.08333H4.36979V5.41667H2.91146V7.08333ZM5.61979 7.08333H7.07813V5.41667H5.61979V7.08333Z" fill="#F0F0F0"/>
</svg>
