<svg width="20" height="20" viewBox="0 0 20 20" fill="none" xmlns="http://www.w3.org/2000/svg">
<path d="M11.25 3.38486C11.25 2.27153 9.90333 1.71403 9.11667 2.50153L5.36667 6.25153H3.75667C2.80584 6.25153 1.825 6.80486 1.54 7.83903C1.34705 8.54364 1.24951 9.27097 1.25 10.0015C1.25 10.7499 1.35084 11.4749 1.54167 12.164C1.82584 13.1974 2.80667 13.7515 3.7575 13.7515H5.36584L9.11584 17.5015C9.90334 18.289 11.25 17.7315 11.25 16.6182V3.38486ZM15.4867 4.25653C15.6039 4.13948 15.7627 4.07374 15.9283 4.07374C16.094 4.07374 16.2528 4.13948 16.37 4.25653C19.5433 7.42903 19.5433 12.5732 16.37 15.7465C16.2515 15.8569 16.0948 15.917 15.9329 15.9142C15.771 15.9113 15.6165 15.8457 15.502 15.7312C15.3875 15.6167 15.3219 15.4622 15.319 15.3003C15.3162 15.1384 15.3763 14.9817 15.4867 14.8632C16.1252 14.2248 16.6317 13.4668 16.9772 12.6327C17.3228 11.7985 17.5006 10.9044 17.5006 10.0015C17.5006 9.09862 17.3228 8.20455 16.9772 7.37038C16.6317 6.53621 16.1252 5.77827 15.4867 5.13986C15.3696 5.02267 15.3039 4.86382 15.3039 4.69819C15.3039 4.53257 15.3696 4.37371 15.4867 4.25653Z" fill="#FC6605"/>
<path d="M13.2757 6.46445C13.3337 6.40637 13.4027 6.3603 13.4785 6.32886C13.5544 6.29743 13.6357 6.28125 13.7178 6.28125C13.7999 6.28125 13.8812 6.29743 13.9571 6.32886C14.0329 6.3603 14.1018 6.40637 14.1599 6.46445C14.6242 6.92875 14.9926 7.47999 15.2439 8.08667C15.4953 8.69335 15.6246 9.3436 15.6246 10.0003C15.6246 10.657 15.4953 11.3072 15.2439 11.9139C14.9926 12.5206 14.6242 13.0718 14.1599 13.5361C14.0419 13.6499 13.884 13.7128 13.7202 13.7113C13.5563 13.7098 13.3996 13.644 13.2837 13.5281C13.1679 13.4122 13.1022 13.2554 13.1009 13.0915C13.0996 12.9276 13.1626 12.7698 13.2765 12.6519C13.6248 12.3037 13.901 11.8903 14.0894 11.4354C14.2779 10.9804 14.3749 10.4927 14.3749 10.0003C14.3749 9.50782 14.2779 9.02018 14.0894 8.56521C13.901 8.11024 13.6248 7.69684 13.2765 7.34862C13.1595 7.23143 13.0938 7.07258 13.0938 6.90695C13.0938 6.74132 13.1595 6.58247 13.2765 6.46528" fill="#FC6605"/>
</svg>
