<svg width="20" height="20" viewBox="0 0 20 20" fill="none" xmlns="http://www.w3.org/2000/svg">
<path d="M10.0041 14.0002C9.74271 14.0013 9.48409 14.054 9.24303 14.1552C9.00198 14.2563 8.78322 14.404 8.59926 14.5897C8.41529 14.7755 8.26972 14.9956 8.17087 15.2376C8.07201 15.4796 8.02181 15.7388 8.02313 16.0002C8.02313 17.1042 8.91012 18.0002 10.0041 18.0002C10.2655 17.9989 10.524 17.9461 10.7649 17.8449C11.0058 17.7436 11.2245 17.596 11.4083 17.4102C11.5922 17.2245 11.7377 17.0044 11.8365 16.7625C11.9353 16.5205 11.9854 16.2615 11.9841 16.0002C11.9841 14.8952 11.0981 14.0002 10.0041 14.0002ZM5.80413 11.7582L7.20412 13.1722C7.57003 12.8011 8.00603 12.5064 8.48679 12.3053C8.96755 12.1042 9.48349 12.0006 10.0046 12.0006C10.5258 12.0006 11.0417 12.1042 11.5225 12.3053C12.0032 12.5064 12.4392 12.8011 12.8051 13.1722L14.2041 11.7582C13.6553 11.2018 13.0013 10.7601 12.2803 10.4586C11.5593 10.1571 10.7856 10.0018 10.0041 10.0018C9.22262 10.0018 8.44891 10.1571 7.72791 10.4586C7.00691 10.7601 6.35299 11.2018 5.80413 11.7582ZM3.00413 8.92817L4.40413 10.3422C5.13574 9.60023 6.00751 9.01108 6.96878 8.60896C7.93004 8.20684 8.96164 7.99977 10.0036 7.99977C11.0456 7.99977 12.0772 8.20684 13.0385 8.60896C13.9997 9.01108 14.8715 9.60023 15.6031 10.3422L17.0041 8.92817C16.0896 8.00055 14.9998 7.26396 13.7981 6.7612C12.5964 6.25844 11.3068 5.99954 10.0041 5.99954C8.70149 5.99954 7.41185 6.25844 6.21015 6.7612C5.00845 7.26396 3.91867 8.00055 3.00413 8.92817ZM0.203125 6.10017L1.60312 7.51417C2.70066 6.401 4.00849 5.51707 5.45061 4.91374C6.89273 4.31042 8.44039 3.99973 10.0036 3.99973C11.5669 3.99973 13.1145 4.31042 14.5566 4.91374C15.9988 5.51707 17.3066 6.401 18.4041 7.51417L19.8041 6.10017C18.5237 4.80148 16.9979 3.77023 15.3154 3.06635C13.633 2.36247 11.8274 2 10.0036 2C8.17986 2 6.37428 2.36247 4.69182 3.06635C3.00936 3.77023 1.48357 4.80148 0.203125 6.10017Z" fill="#E94545"/>
</svg>
