<svg width="36" height="46" viewBox="0 0 36 46" fill="none" xmlns="http://www.w3.org/2000/svg">
<path fill-rule="evenodd" clip-rule="evenodd" d="M7 1C3.68629 1 1 3.68629 1 7V31C1 34.3137 3.68629 37 7 37H10.9015L18.3245 44.2275L25.5154 37H29C32.3137 37 35 34.3137 35 31V7C35 3.68629 32.3137 1 29 1H7Z" fill="white"/>
<path d="M10.9015 37L11.5991 36.2835L11.3079 36H10.9015V37ZM18.3245 44.2275L17.6269 44.944L18.3357 45.6341L19.0334 44.9328L18.3245 44.2275ZM25.5154 37V36H25.0997L24.8065 36.2947L25.5154 37ZM2 7C2 4.23858 4.23858 2 7 2V0C3.13401 0 0 3.13401 0 7H2ZM2 31V7H0V31H2ZM7 36C4.23858 36 2 33.7614 2 31H0C0 34.866 3.13401 38 7 38V36ZM10.9015 36H7V38H10.9015V36ZM19.0222 43.511L11.5991 36.2835L10.2039 37.7165L17.6269 44.944L19.0222 43.511ZM24.8065 36.2947L17.6156 43.5222L19.0334 44.9328L26.2243 37.7053L24.8065 36.2947ZM29 36H25.5154V38H29V36ZM34 31C34 33.7614 31.7614 36 29 36V38C32.866 38 36 34.866 36 31H34ZM34 7V31H36V7H34ZM29 2C31.7614 2 34 4.23858 34 7H36C36 3.13401 32.866 0 29 0V2ZM7 2H29V0H7V2Z" fill="#E7D46F"/>
<g clip-path="url(#clip0_1386_11583)">
<path d="M19 12H27C27.5531 12 28 12.4469 28 13V27C28 27.5531 27.5531 28 27 28H19C18.4469 28 18 27.5531 18 27V13C18 12.4469 18.4469 12 19 12ZM23 18.25C22.5844 18.25 22.25 18.5844 22.25 19V21C22.25 21.4156 22.5844 21.75 23 21.75C23.4156 21.75 23.75 21.4156 23.75 21V19C23.75 18.5844 23.4156 18.25 23 18.25ZM23.75 24C23.75 23.5844 23.4156 23.25 23 23.25C22.5844 23.25 22.25 23.5844 22.25 24V26C22.25 26.4156 22.5844 26.75 23 26.75C23.4156 26.75 23.75 26.4156 23.75 26V24ZM23 13.25C22.5844 13.25 22.25 13.5844 22.25 14V16C22.25 16.4156 22.5844 16.75 23 16.75C23.4156 16.75 23.75 16.4156 23.75 16V14C23.75 13.5844 23.4156 13.25 23 13.25ZM9 15H17V17H15.75V19H17V22C15.3438 22 14 23.3438 14 25V27C14 27.5531 13.5531 28 13 28H12C11.4469 28 11 27.5531 11 27V25C11 23.3438 9.65625 22 8 22V19H10.25V17H9C8.44687 17 8 16.5531 8 16C8 15.4469 8.44687 15 9 15ZM14.25 17H11.75V19H14.25V17Z" fill="#CA6437"/>
</g>
<defs>
<clipPath id="clip0_1386_11583">
<rect width="20" height="16" fill="white" transform="translate(8 12)"/>
</clipPath>
</defs>
</svg>
