<svg width="20" height="20" viewBox="0 0 20 20" fill="none" xmlns="http://www.w3.org/2000/svg">
<g clip-path="url(#clip0_1386_11108)">
<path d="M16.2538 10C16.1988 10 16.1457 10.0063 16.0913 10.0081L15.1519 5.625H17.5038V4.375H14.3788C14.2856 4.37497 14.1935 4.3958 14.1094 4.43597C14.0252 4.47613 13.9511 4.53461 13.8925 4.60712C13.8339 4.67963 13.7923 4.76433 13.7707 4.85502C13.749 4.94572 13.748 5.0401 13.7675 5.13125L14.1413 6.875H7.74567L7.12067 5H8.7538V3.75H4.3788V5H5.8038L6.45442 6.95188L4.84817 10.1644C4.11918 9.94111 3.33946 9.94534 2.61294 10.1765C1.88642 10.4077 1.24763 10.8548 0.781709 11.4583C0.315791 12.0618 0.0448864 12.793 0.00510885 13.5543C-0.0346687 14.3157 0.158571 15.0711 0.559067 15.7199C0.959563 16.3686 1.54829 16.8799 2.24676 17.1855C2.94524 17.4911 3.72027 17.5766 4.46856 17.4305C5.21684 17.2844 5.90282 16.9137 6.43505 16.3678C6.96728 15.8219 7.32047 15.1267 7.44755 14.375H9.0788C9.26626 14.3751 9.45133 14.333 9.62032 14.2518C9.78931 14.1707 9.93789 14.0526 10.055 13.9062L14.4663 8.39125L14.8688 10.2688C14.0041 10.6153 13.2997 11.2719 12.8932 12.1101C12.4867 12.9482 12.4073 13.9079 12.6705 14.8015C12.9337 15.6951 13.5206 16.4585 14.3165 16.9425C15.1125 17.4265 16.0603 17.5964 16.9748 17.4189C17.8893 17.2415 18.7048 16.7295 19.262 15.9829C19.8192 15.2363 20.078 14.3088 19.9879 13.3816C19.8978 12.4544 19.4652 11.5941 18.7747 10.9688C18.0842 10.3435 17.1854 9.99804 16.2538 10ZM3.7538 16.25C3.40292 16.2507 3.05584 16.1775 2.73511 16.0352C2.41438 15.8929 2.1272 15.6847 1.89225 15.4241C1.65729 15.1635 1.47982 14.8564 1.37138 14.5227C1.26293 14.189 1.22595 13.8362 1.26283 13.4872C1.29971 13.1383 1.40962 12.8011 1.58542 12.4974C1.76123 12.1937 1.99898 11.9305 2.28322 11.7248C2.56746 11.5191 2.89183 11.3755 3.23521 11.3034C3.5786 11.2313 3.93332 11.2322 4.2763 11.3063L3.19505 13.4706L3.20067 13.4731C3.15563 13.5586 3.13103 13.6534 3.1288 13.75C3.12785 13.8906 3.17469 14.0274 3.26164 14.1379C3.3486 14.2485 3.47052 14.3262 3.60742 14.3584C3.74433 14.3905 3.8881 14.3753 4.01518 14.315C4.14227 14.2548 4.24513 14.1532 4.30692 14.0269L4.31317 14.0294L5.39005 11.875C5.77526 12.2075 6.04937 12.65 6.17547 13.1429C6.30157 13.6359 6.27362 14.1557 6.09537 14.6323C5.91712 15.1089 5.59714 15.5194 5.17849 15.8087C4.75984 16.0979 4.26264 16.2519 3.7538 16.25ZM7.44755 13.125C7.28382 12.1633 6.75181 11.3033 5.96442 10.7275L7.01317 8.62875L8.51192 13.125H7.44755ZM9.6088 12.4625L8.16255 8.125H13.0782L9.6088 12.4625ZM16.2538 16.25C15.691 16.2518 15.1442 16.0631 14.7024 15.7146C14.2605 15.3661 13.9496 14.8783 13.8202 14.3306C13.6908 13.7829 13.7505 13.2075 13.9897 12.6981C14.2289 12.1887 14.6335 11.7752 15.1375 11.525L15.6425 13.8812L15.655 13.8787C15.6826 14.0177 15.7572 14.1429 15.8663 14.2332C15.9753 14.3236 16.1122 14.3737 16.2538 14.375C16.4196 14.375 16.5785 14.3092 16.6957 14.1919C16.813 14.0747 16.8788 13.9158 16.8788 13.75C16.8748 13.7063 16.8662 13.6631 16.8532 13.6213L16.8657 13.6188L16.3594 11.2606C17.0133 11.2859 17.6311 11.5669 18.0798 12.0432C18.5284 12.5195 18.7721 13.153 18.7582 13.8072C18.7444 14.4614 18.4741 15.084 18.0057 15.5409C17.5373 15.9978 16.9081 16.2525 16.2538 16.25Z" fill="#F0F0F0"/>
</g>
<defs>
<clipPath id="clip0_1386_11108">
<rect width="20" height="20" fill="white"/>
</clipPath>
</defs>
</svg>
