<?xml version="1.0" encoding="UTF-8"?>
<svg version="1.1" xmlns="http://www.w3.org/2000/svg" width="512" height="512">
<path d="M0 0 C1.28372498 -0.0071553 2.56744995 -0.01431061 3.89007568 -0.02168274 C5.29540991 -0.02452237 6.7007444 -0.02723417 8.1060791 -0.02983093 C9.59999751 -0.03610405 11.09391438 -0.04275159 12.58782959 -0.04974365 C17.47736545 -0.07069069 22.36690128 -0.0811393 27.25646973 -0.09111023 C28.94725052 -0.0951617 30.63803117 -0.09927873 32.32881165 -0.10346031 C40.27752044 -0.12249377 48.22622008 -0.13672699 56.17494726 -0.14507228 C65.3143785 -0.1548291 74.45356655 -0.18111562 83.5929122 -0.22157317 C90.68027993 -0.25185752 97.76757844 -0.26655288 104.85500956 -0.26985329 C109.07696771 -0.27219028 113.29866554 -0.28097238 117.52055359 -0.30631447 C121.49993965 -0.32981633 125.47889806 -0.33374107 129.45833588 -0.32355309 C130.90658248 -0.32306289 132.35485176 -0.32922799 133.80303192 -0.34310913 C152.61185442 -0.51308631 171.49174627 4.8865853 185.41271973 18.14717102 C193.68776074 26.65422253 199.47826493 37.02069259 205.57678223 47.11543274 C208.84846475 52.51805954 212.16455667 57.89337801 215.47521973 63.27217102 C216.14496826 64.36344299 216.8147168 65.45471497 217.50476074 66.57905579 C222.24070116 74.28511977 227.04619517 81.94411886 231.95983887 89.5382843 C232.41866455 90.25484192 232.87749023 90.97139954 233.35021973 91.70967102 C233.75111816 92.32971008 234.1520166 92.94974915 234.56506348 93.58857727 C235.41271973 95.14717102 235.41271973 95.14717102 235.41271973 97.14717102 C236.57843506 97.11397766 237.74415039 97.0807843 238.94519043 97.04658508 C245.97149388 97.05239724 252.92301964 97.95636871 259.89318848 98.75654602 C261.39377212 98.92642666 262.89436744 99.09620416 264.39497375 99.2658844 C267.53129314 99.62199243 270.66708044 99.98244019 273.8026123 100.34541321 C277.78040118 100.80509761 281.75975491 101.24924139 285.73974133 101.68943405 C288.83889467 102.03483756 291.93673274 102.39110985 295.03432655 102.75020599 C296.49879887 102.91825706 297.96370826 103.0825513 299.42906761 103.24268341 C320.1820232 105.52227929 338.62766005 111.38128371 352.60021973 127.77217102 C361.89210939 140.01715113 367.01173107 153.75059043 366.77600098 169.13935852 C366.76740555 170.16511993 366.75881012 171.19088135 366.74995422 172.24772644 C366.5500471 183.51611655 365.37113694 194.66513011 364.01403809 205.84492493 C363.59318604 209.33042404 363.20002248 212.81834529 362.8092041 216.30732727 C362.54713782 218.54840103 362.28352584 220.7892947 362.01818848 223.02998352 C361.90242966 224.06116302 361.78667084 225.09234253 361.66740417 226.1547699 C360.46485219 235.81508396 360.46485219 235.81508396 357.41271973 240.14717102 C352.91344158 243.17052128 347.0822134 242.39744818 341.86193848 242.34248352 C340.84799515 242.33965363 339.83405182 242.33682373 338.78938293 242.33390808 C335.55954046 242.32273727 332.32997801 242.29763813 329.10021973 242.27217102 C326.90686436 242.26213722 324.71350464 242.25301207 322.5201416 242.24482727 C317.15090587 242.22280809 311.78183281 242.18936125 306.41271973 242.14717102 C306.13355713 243.25016541 306.13355713 243.25016541 305.84875488 244.3754425 C301.95396179 259.2857747 293.49469117 270.76718095 280.10412598 278.68232727 C265.7058624 286.51882776 250.68565859 288.44187218 234.63928223 284.24482727 C220.56321803 279.45623884 208.67501143 270.19717744 201.41271973 257.14717102 C196.41271973 245.92889691 196.41271973 245.92889691 196.41271973 242.14717102 C136.68271973 242.14717102 76.95271973 242.14717102 15.41271973 242.14717102 C14.42271973 245.44717102 13.43271973 248.74717102 12.41271973 252.14717102 C6.04978188 267.10971578 -5.46689937 277.23862641 -20.36071777 283.36982727 C-34.7699075 288.40040403 -51.04960142 287.34418752 -64.83728027 280.89717102 C-77.11498316 274.22191508 -87.20559519 264.17290562 -92.58728027 251.14717102 C-92.97116619 249.59127789 -93.32857105 248.02869122 -93.66394043 246.46162415 C-93.83849762 245.65309998 -94.01305481 244.84457581 -94.19290161 244.0115509 C-94.32304657 243.39630554 -94.45319153 242.78106018 -94.58728027 242.14717102 C-95.89398682 242.16288147 -97.20069336 242.17859192 -98.54699707 242.19477844 C-103.40175191 242.24913822 -108.25647991 242.28354328 -113.1114502 242.31196594 C-115.21143114 242.32703874 -117.31138067 242.34750043 -119.41125488 242.37348938 C-122.43224851 242.40993856 -125.45282538 242.42691261 -128.47399902 242.44013977 C-129.41063889 242.45562363 -130.34727875 242.47110748 -131.31230164 242.48706055 C-136.24316259 242.48832943 -139.58884837 242.37070163 -143.58728027 239.14717102 C-145.97976351 236.75468779 -145.84032482 236.24640092 -145.85470581 232.98774719 C-145.86323578 232.11596329 -145.87176575 231.24417938 -145.8805542 230.34597778 C-145.87964783 229.38705124 -145.87874146 228.42812469 -145.87780762 227.44013977 C-145.88452484 226.43178574 -145.89124207 225.4234317 -145.89816284 224.38452148 C-145.91723422 221.03452179 -145.92107256 217.68472171 -145.92321777 214.33467102 C-145.92964264 212.00735898 -145.93637076 209.68004775 -145.94338989 207.35273743 C-145.95538783 202.46339549 -145.95906846 197.57412431 -145.95788574 192.68476868 C-145.95768316 186.43491059 -145.9849111 180.18551036 -146.01943016 173.9357605 C-146.04173473 169.12287843 -146.04572208 164.31010557 -146.04466629 159.49717712 C-146.04701974 157.19440645 -146.05582874 154.89163266 -146.07133102 152.58891296 C-146.09104886 149.35540934 -146.08512815 146.12287971 -146.07312012 142.88935852 C-146.08435913 141.94662582 -146.09559814 141.00389313 -146.10717773 140.03259277 C-146.01552787 130.2618704 -142.56813945 121.1280302 -135.58728027 114.14717102 C-129.18918363 109.09604209 -122.34580522 106.14988789 -114.73571777 103.39326477 C-101.17801588 98.02737531 -91.93820938 88.54897714 -85.33337402 75.70967102 C-83.75215092 71.89885718 -82.53941083 67.99612301 -81.33728027 64.05342102 C-73.86749014 39.92526861 -59.24462857 20.87698126 -36.57458496 8.89985657 C-25.25408486 3.27821863 -12.63706821 0.04866503 0 0 Z M-50.12243652 41.99873352 C-57.26690993 51.03965312 -61.48618995 60.7744182 -65.13659668 71.58076477 C-71.73505969 91.11134468 -81.88143898 107.13913095 -100.75134277 116.76045227 C-105.76960106 119.12855308 -110.79758759 121.22960715 -116.02478027 123.08467102 C-121.69496185 125.29742481 -125.06216345 128.92171016 -127.64535522 134.3848877 C-128.70780617 137.50062449 -128.828175 139.9346731 -128.81433105 143.22261047 C-128.81417999 144.42347794 -128.81402893 145.6243454 -128.81387329 146.86160278 C-128.80355072 148.14822311 -128.79322815 149.43484344 -128.78259277 150.76045227 C-128.77885939 152.09851876 -128.77601395 153.436588 -128.77401733 154.7746582 C-128.76640643 158.28458801 -128.74678009 161.79435047 -128.72460938 165.30421448 C-128.70409592 168.89051551 -128.69500389 172.47684377 -128.68493652 176.06318665 C-128.66353156 183.09124987 -128.62942658 190.1192024 -128.58728027 197.14717102 C-122.61015119 197.37062581 -116.63548036 197.53340806 -110.65515137 197.64155579 C-108.62379586 197.6866575 -106.59272998 197.74796 -104.56237793 197.8261261 C-93.10806844 198.70717275 -93.10806844 198.70717275 -82.59411621 195.23554993 C-80.61808243 192.97120958 -79.10446148 190.73314611 -77.58728027 188.14717102 C-65.58822393 177.62039153 -50.79511928 173.67692828 -35.08728027 174.20967102 C-24.47802011 175.14931713 -15.60731688 179.1276198 -6.70837402 184.81513977 C-4.6160682 186.18453506 -4.6160682 186.18453506 -2.36853027 187.21357727 C0.00287766 188.45648625 0.27543805 189.73880982 1.41271973 192.14717102 C2.18486816 193.04693665 2.9570166 193.94670227 3.75256348 194.87373352 C6.35668167 197.95537492 8.21857997 201.15881123 10.03771973 204.77217102 C10.60748535 205.87818665 11.17725098 206.98420227 11.76428223 208.12373352 C13.87271912 213.26991836 15.06389181 218.75185937 16.41271973 224.14717102 C75.48271973 224.14717102 134.55271973 224.14717102 195.41271973 224.14717102 C196.07271973 221.17717102 196.73271973 218.20717102 197.41271973 215.14717102 C196.6854987 215.14478267 195.95827768 215.14239431 195.20901966 215.13993359 C177.51534033 215.08080142 159.8218073 215.00526284 142.12827778 214.91145611 C133.57181848 214.86648765 125.0154009 214.82707542 116.4588623 214.80073547 C109.00110998 214.77776388 101.54348956 214.74437529 94.08584183 214.69846946 C90.13693831 214.67452584 86.18816552 214.65580457 82.23919106 214.64955711 C78.52172895 214.64351134 74.80460139 214.62353025 71.08726311 214.59289551 C69.07365688 214.57991884 67.05997252 214.58168661 65.04632568 214.58389282 C63.84464249 214.57135468 62.64295929 214.55881653 61.40486145 214.54589844 C59.84103965 214.53898499 59.84103965 214.53898499 58.2456255 214.53193188 C54.9659209 214.0864875 53.07015622 213.09055629 50.41271973 211.14717102 C49.00814236 208.33801628 49.16376815 206.25906568 49.41271973 203.14717102 C51.19256377 200.01125532 51.9358018 199.30614366 55.41271973 198.14717102 C57.41170792 198.06278949 59.41348495 198.0399287 61.41423035 198.04951477 C62.66891617 198.05273239 63.92360199 198.05595001 65.21630859 198.05926514 C66.60949719 198.06771469 68.00268566 198.07618398 69.39587402 198.08467102 C70.86114828 198.0898239 72.3264246 198.0944132 73.79170227 198.09848022 C76.94940356 198.10754785 80.1070867 198.11885161 83.26477623 198.1313324 C88.26176447 198.14927872 93.25867606 198.15125418 98.25569153 198.14888 C99.0991863 198.14851085 99.94268107 198.14814169 100.81173629 198.14776134 C103.4098507 198.14644355 106.00796486 198.14488611 108.6060791 198.14326477 C119.3666182 198.13655549 130.12667363 198.14137218 140.88708496 198.19844055 C148.73395276 198.23994634 156.58013939 198.2496387 164.4270795 198.22233009 C168.5783046 198.20909771 172.7281179 198.21190132 176.87918663 198.25337219 C180.78771945 198.29208704 184.69397853 198.28854634 188.6025219 198.25324821 C190.03275347 198.24772367 191.46314214 198.25743842 192.89313889 198.28393745 C200.9484391 198.53673191 200.9484391 198.53673191 207.9727726 195.16540527 C209.96684574 192.91541355 211.66842967 190.59092279 213.41271973 188.14717102 C224.66679166 178.11399798 239.54829613 173.78307971 254.41271973 174.14717102 C269.53207172 175.56788164 282.82698489 180.85276774 293.41271973 192.14717102 C293.88209961 193.00318909 294.35147949 193.85920715 294.83508301 194.74116516 C298.91784094 198.55207437 303.141625 197.76754384 308.52209473 197.63545227 C309.60404114 197.62837753 310.68598755 197.6213028 311.80072021 197.61401367 C315.25542422 197.58603146 318.70850584 197.52328233 322.16271973 197.45967102 C324.50514423 197.43459326 326.84759415 197.41177919 329.19006348 197.39131165 C334.93150217 197.3361923 340.67199505 197.2525269 346.41271973 197.14717102 C346.91914303 193.43968556 347.41671128 189.73106303 347.91271973 186.02217102 C348.05580566 184.97545227 348.1988916 183.92873352 348.34631348 182.85029602 C349.00157726 177.9202161 349.61979374 173.13420355 349.41271973 168.14717102 C347.94463867 168.13315247 347.94463867 168.13315247 346.44689941 168.11885071 C342.80858182 168.07891644 339.17110681 168.01314968 335.5333252 167.93965149 C333.96019329 167.91146148 332.38692026 167.89023704 330.81359863 167.87617493 C328.54903017 167.8547166 326.28615468 167.80805754 324.02209473 167.75654602 C323.32090515 167.75531738 322.61971558 167.75408875 321.89727783 167.75282288 C318.5446242 167.65271467 316.68795891 167.35203342 313.96838379 165.32783508 C311.68795381 162.13122482 311.86602334 159.9740457 312.41271973 156.14717102 C314.62266055 153.15457074 315.83002658 152.24924732 319.52893066 151.60127258 C320.7229248 151.58032532 321.91691895 151.55937805 323.14709473 151.53779602 C324.44260254 151.50556946 325.73811035 151.4733429 327.07287598 151.44013977 C328.43615274 151.42539633 329.79943418 151.4110788 331.16271973 151.39717102 C332.54166348 151.36900288 333.92057247 151.33907424 335.29943848 151.30732727 C338.67059189 151.23660377 342.04105253 151.18391598 345.41271973 151.14717102 C339.04278961 137.52669822 330.42579068 129.5145279 316.41271973 124.14717102 C308.38826134 122.01359122 300.2181913 121.23495414 291.98349762 120.36064339 C289.3847663 120.08393715 286.78695468 119.79972341 284.18927002 119.5133667 C276.81002548 118.70077722 269.4297766 117.89786099 262.04797363 117.10884094 C257.51716245 116.62402258 252.98776212 116.12748585 248.45903778 115.62356377 C246.73877056 115.43451 245.01800428 115.24994032 243.29676056 115.06999397 C240.89298178 114.81840161 238.4912733 114.55196073 236.08947754 114.28218079 C235.38288498 114.21195206 234.67629242 114.14172333 233.94828796 114.06936646 C228.93367831 113.48336823 225.14956274 112.2857979 221.90563965 108.29145813 C221.48903076 107.59286682 221.07242187 106.89427551 220.64318848 106.17451477 C220.15543945 105.371026 219.66769043 104.56753723 219.16516113 103.73970032 C218.64873047 102.86354065 218.1322998 101.98738098 217.60021973 101.08467102 C216.44549134 99.17308006 215.29053298 97.26162801 214.13537598 95.35029602 C213.22682861 93.83339172 213.22682861 93.83339172 212.29992676 92.2858429 C209.08753329 86.94321282 205.81002789 81.64074058 202.53771973 76.33467102 C201.18472335 74.14074188 199.83185935 71.94673109 198.47912598 69.75263977 C197.47196533 68.11947815 197.47196533 68.11947815 196.44445801 66.45332336 C194.41160691 63.14536018 192.39389823 59.82850253 190.37756348 56.51045227 C189.07713318 54.38914333 187.77636516 52.26804139 186.47521973 50.14717102 C185.89723633 49.18706116 185.31925293 48.22695129 184.72375488 47.23774719 C176.07342059 33.21207693 166.0396386 23.68064212 150.0526104 18.96224976 C143.73582454 17.54773534 137.46472475 17.5897286 131.02233887 17.6295929 C129.52590763 17.62415761 128.02948176 17.61702714 126.5330658 17.60835266 C122.50809437 17.59028158 118.48353792 17.59711926 114.45856023 17.609869 C110.22105597 17.62008353 105.98358433 17.61057992 101.74607849 17.60432434 C94.63237207 17.59707152 87.5188324 17.60657234 80.40515137 17.62568665 C72.21449374 17.64744248 64.0242347 17.64040391 55.83358675 17.61838102 C48.76646327 17.60014918 41.69945883 17.59770675 34.63231939 17.6081357 C30.4267347 17.61432919 26.22133649 17.61532211 22.01576424 17.60198975 C18.05840109 17.59031796 14.10154478 17.5986601 10.14423561 17.62156677 C8.70364976 17.62679447 7.26302022 17.62544389 5.82245255 17.61651611 C-15.89772175 17.49446002 -35.53509577 25.59078475 -50.12243652 41.99873352 Z M-71.05212402 207.08467102 C-77.56638659 215.83665738 -79.32917433 225.45348626 -78.11853027 236.19795227 C-76.25397675 246.5489663 -70.91071984 255.37179136 -62.27478027 261.45967102 C-60.73195987 262.38898734 -59.16894894 263.28563296 -57.58728027 264.14717102 C-56.48126465 264.76785461 -56.48126465 264.76785461 -55.35290527 265.40107727 C-46.95368172 269.44566982 -37.08894991 269.6264529 -28.17321777 267.22920227 C-16.83569406 262.79465186 -8.65793397 256.03401939 -3.52087402 244.81904602 C0.61366477 233.3941369 -0.13881958 222.89691571 -5.27478027 211.89717102 C-10.63909077 201.9164587 -18.15347636 196.37549523 -28.72009277 192.33076477 C-45.18395088 187.56491111 -60.5253654 194.42378593 -71.05212402 207.08467102 Z M221.60021973 204.83467102 C215.62821139 212.13379232 211.96042255 221.67634234 212.41271973 231.14717102 C213.98622753 244.25973606 218.71866677 252.63183661 228.73303223 261.11201477 C237.97361424 268.13000782 248.19313529 269.53839949 259.41271973 268.14717102 C271.72216867 264.81571465 280.00837309 258.01927142 286.41271973 247.14717102 C291.240798 238.09231359 291.28677679 227.72563776 288.48693848 218.03388977 C284.39630493 207.04124181 277.5411511 199.03307696 266.88537598 194.14717102 C250.1461671 187.37744358 233.98128285 191.99901162 221.60021973 204.83467102 Z M-128.58728027 215.14717102 C-128.58728027 218.11717102 -128.58728027 221.08717102 -128.58728027 224.14717102 C-117.69728027 224.14717102 -106.80728027 224.14717102 -95.58728027 224.14717102 C-95.25728027 221.17717102 -94.92728027 218.20717102 -94.58728027 215.14717102 C-105.80728027 215.14717102 -117.02728027 215.14717102 -128.58728027 215.14717102 Z M306.41271973 215.14717102 C306.74271973 218.11717102 307.07271973 221.08717102 307.41271973 224.14717102 C319.29271973 224.14717102 331.17271973 224.14717102 343.41271973 224.14717102 C343.74271973 221.17717102 344.07271973 218.20717102 344.41271973 215.14717102 C331.87271973 215.14717102 319.33271973 215.14717102 306.41271973 215.14717102 Z " fill="#000000" transform="translate(145.5872802734375,112.85282897949219)"/>
<path d="M0 0 C1.26006866 -0.0071553 2.52013733 -0.01431061 3.81838989 -0.02168274 C5.20741247 -0.02452268 6.59643532 -0.02723445 7.98545837 -0.02983093 C9.4543931 -0.03610045 10.92332625 -0.04274768 12.39225769 -0.04974365 C17.20969042 -0.0707336 22.02712326 -0.08114332 26.84458923 -0.09111023 C28.50757297 -0.09516009 30.17055655 -0.09927708 31.83353996 -0.10346031 C39.65036718 -0.12250319 47.46718503 -0.13673445 55.28403097 -0.14507228 C64.28428267 -0.15483272 73.28428766 -0.18112473 82.2844525 -0.22157317 C89.25538586 -0.25181818 96.22624884 -0.26654919 103.19724649 -0.26985329 C107.3537473 -0.27219478 111.50998429 -0.28103649 115.66641426 -0.30631447 C119.58256693 -0.32974676 123.4982849 -0.3337683 127.41448975 -0.32355309 C128.84303173 -0.32306122 130.27159623 -0.32927715 131.70007133 -0.34310913 C144.87282651 -0.46340951 156.85647203 1.89583517 166.74693298 11.14717102 C174.60059464 20.33762615 180.37096152 31.10566428 186.42662048 41.51435852 C190.03106433 47.68158528 193.83409021 53.71324463 197.70152283 59.71821594 C207.88155352 75.60013729 207.88155352 75.60013729 206.74693298 81.14717102 C203.87214524 85.76736561 203.87214524 85.76736561 200.88492429 86.77567554 C198.64233892 87.16534519 196.56509178 87.27491362 194.28907204 87.27859879 C192.95027723 87.2843605 192.95027723 87.2843605 191.58443606 87.29023862 C190.60798833 87.28937214 189.6315406 87.28850565 188.62550354 87.28761292 C187.58501338 87.29058404 186.54452323 87.29355516 185.47250307 87.29661632 C181.97494168 87.30530993 178.47741449 87.30681212 174.97984314 87.30830383 C172.47670417 87.31293147 169.97356591 87.31795606 167.47042847 87.323349 C160.66262704 87.3364787 153.85483901 87.34295551 147.04702806 87.34735966 C142.79623191 87.35012302 138.54543802 87.3543605 134.2946434 87.35886383 C122.52498581 87.37105453 110.75533004 87.38135481 98.98566628 87.38473892 C98.23257526 87.38495849 97.47948425 87.38517805 96.7035723 87.38540427 C95.57124242 87.38573169 95.57124242 87.38573169 94.4160372 87.38606572 C92.88636184 87.38650919 91.35668647 87.38695575 89.82701111 87.3874054 C89.06824021 87.38762683 88.30946931 87.38784826 87.52770536 87.38807639 C75.2294191 87.3920255 62.93119206 87.40948382 50.63292868 87.43276492 C38.00601215 87.45647526 25.37912534 87.4689406 12.75218618 87.47010684 C5.66276217 87.47102369 -1.42658465 87.47677852 -8.5159874 87.49492645 C-15.1824496 87.5119317 -21.84874019 87.51358248 -28.51522636 87.50478745 C-30.9638006 87.50401493 -33.4123826 87.50838789 -35.86093712 87.5182457 C-39.20002441 87.53090192 -42.53858705 87.52512252 -45.87767029 87.5146637 C-46.84965658 87.5227201 -47.82164286 87.53077651 -48.82308328 87.53907704 C-54.0489178 87.50071713 -57.74486281 87.10340091 -62.25306702 84.14717102 C-64.66824219 80.74991262 -64.33665528 77.98838577 -63.76527405 73.91719055 C-59.40111677 50.31579471 -53.15207383 25.80061454 -33.08119202 10.77217102 C-23.00350285 4.21444027 -12.08678739 0.04724338 0 0 Z M-1.25306702 18.14717102 C-1.25306702 34.97717102 -1.25306702 51.80717102 -1.25306702 69.14717102 C23.82693298 69.14717102 48.90693298 69.14717102 74.74693298 69.14717102 C74.74693298 51.98717102 74.74693298 34.82717102 74.74693298 17.14717102 C61.84556799 17.11809301 61.84556799 17.11809301 48.94419861 17.0983429 C43.68352756 17.09236133 38.4228739 17.08527927 33.16221619 17.07173157 C28.92175926 17.06087931 24.68132096 17.0548892 20.44085121 17.05229378 C18.82170633 17.05044376 17.20256249 17.04683122 15.58342552 17.04144096 C13.31848814 17.03419954 11.0536281 17.0331814 8.78868103 17.03364563 C7.49850571 17.03142502 6.20833038 17.02920441 4.87905884 17.0269165 C1.71587219 17.00219233 1.71587219 17.00219233 -1.25306702 18.14717102 Z M92.74693298 17.14717102 C92.74693298 34.30717102 92.74693298 51.46717102 92.74693298 69.14717102 C122.11693298 69.14717102 151.48693298 69.14717102 181.74693298 69.14717102 C177.27059993 60.94056043 172.69876264 52.96906634 167.80943298 45.02217102 C167.13203064 43.90713196 166.4546283 42.7920929 165.75669861 41.64326477 C156.20936408 25.5731135 156.20936408 25.5731135 140.06016541 17.55079651 C135.76311969 16.80102439 131.47158857 16.90403942 127.12193298 16.95185852 C125.80708923 16.95487976 125.80708923 16.95487976 124.46568298 16.95796204 C121.22604557 16.9683383 117.9864834 16.99626012 114.74693298 17.02217102 C103.85693298 17.08404602 103.85693298 17.08404602 92.74693298 17.14717102 Z M-29.25306702 32.14717102 C-37.95177752 41.33121731 -43.25306702 56.57751449 -43.25306702 69.14717102 C-35.00306702 69.14717102 -26.75306702 69.14717102 -18.25306702 69.14717102 C-18.25306702 53.96717102 -18.25306702 38.78717102 -18.25306702 23.14717102 C-21.77498608 23.14717102 -26.83037961 29.80548532 -29.25306702 32.14717102 Z " fill="#000000" transform="translate(146.25306701660156,139.8528289794922)"/>
<path d="M0 0 C7.04137489 7.51474463 8.58326068 14.48619644 8.33203125 24.69921875 C7.42767295 32.356119 3.57473422 38.53829627 -2.07421875 43.69921875 C-9.01905913 48.80293186 -16.61401932 50.30672716 -25.078125 49.171875 C-33.23611168 47.38870851 -39.10253543 43.92696954 -44.078125 37.171875 C-48.42671697 29.96528492 -49.09403767 22.4339403 -48.078125 14.171875 C-46.14725898 7.00163657 -42.00291177 0.63924909 -35.6796875 -3.3359375 C-23.58330197 -9.69289686 -10.59376596 -9.31932795 0 0 Z M-28.078125 13.171875 C-30.31990885 16.8848295 -31.26877032 18.98034178 -30.578125 23.296875 C-28.76094137 26.77981029 -27.25380224 28.8246353 -24.078125 31.171875 C-19.89714229 32.14518069 -16.95663399 31.64932554 -13.203125 29.609375 C-10.46197707 26.46511708 -9.63909698 24.30904335 -9.078125 20.171875 C-10.26284007 15.72919348 -11.15395634 13.78143305 -15.015625 11.234375 C-20.28840209 9.40504417 -23.51845649 10.16443407 -28.078125 13.171875 Z " fill="#000000" transform="translate(417.078125,321.828125)"/>
<path d="M0 0 C6.58121991 7.11036322 8.90649246 14.5971277 8.55859375 24.21484375 C7.65328555 31.89596388 4.83741593 37.74151147 -0.88671875 42.9609375 C-8.52913245 48.76608407 -16.36406867 50.2961959 -25.8203125 49.4296875 C-34.43106486 47.44453608 -40.27949361 42.62088808 -45.203125 35.40234375 C-49.02213245 28.23168991 -48.81570276 19.87767171 -47.3828125 12.03515625 C-45.02284751 4.5570172 -39.58851235 -0.9278674 -32.7578125 -4.5078125 C-21.53813002 -9.51870828 -9.47123366 -8.17046337 0 0 Z M-27.8203125 13.4296875 C-30.25802976 17.39097804 -30.94785064 19.48909371 -30.3203125 24.1171875 C-28.59406254 27.92932283 -27.49583506 29.43212089 -23.8203125 31.4296875 C-21.00857777 32.03301519 -18.62227347 32.10895077 -15.8203125 31.4296875 C-12.85980376 29.13769347 -12.85980376 29.13769347 -10.8203125 26.4296875 C-10.4903125 26.0996875 -10.1603125 25.7696875 -9.8203125 25.4296875 C-9.13673091 20.70320906 -9.13676465 17.42393892 -11.8828125 13.4296875 C-17.4712979 9.62476127 -22.30614016 9.41938034 -27.8203125 13.4296875 Z " fill="#000000" transform="translate(125.8203125,321.5703125)"/>
<path d="M0 0 C1.70446289 -0.01643555 1.70446289 -0.01643555 3.44335938 -0.03320312 C11.81145431 0.04085081 11.81145431 0.04085081 14.73022461 2.47290039 C16.77353439 4.97378533 17.38329587 6.15596905 17.8125 9.375 C17.31288516 13.6217261 15.69446061 14.91148555 12.4375 17.5625 C8.29346378 18.94384541 4.40243462 18.74674179 0.0625 18.75 C-0.78828125 18.76224609 -1.6390625 18.77449219 -2.515625 18.78710938 C-7.87823127 18.79963883 -12.25908115 18.70706237 -16.375 14.875 C-18.09812029 11.51944997 -18.08458089 9.28232635 -17.5625 5.5625 C-13.23072393 -1.10475266 -7.17636565 -0.15112438 0 0 Z " fill="#000000" transform="translate(275.5625,238.4375)"/>
<path d="M0 0 C1.08023438 -0.01095703 2.16046875 -0.02191406 3.2734375 -0.03320312 C11.10115581 0.03927575 11.10115581 0.03927575 15.1875 2.41796875 C17.56301116 5.22864898 18 6.88603852 18 10.5625 C16.9375 13.8125 16.9375 13.8125 15 16.5625 C10.00039654 18.82531747 5.3135479 18.86542254 -0.0625 18.8125 C-0.85205078 18.82023437 -1.64160156 18.82796875 -2.45507812 18.8359375 C-7.58847277 18.81872578 -11.37546978 18.19151876 -15.8125 15.4375 C-17.38575245 12.95341718 -17.45763963 10.58765791 -17.59375 7.6953125 C-15.17226277 -1.00292453 -7.39623128 -0.16328196 0 0 Z " fill="#000000" transform="translate(155,238.4375)"/>
<path d="M0 0 C2.22705086 2.01152981 2.84710004 3.58498581 3.875 6.375 C4.04818134 10.0118082 2.95349449 11.96871544 1 15 C-1.62641487 17.15741221 -3.05286942 16.9990559 -6.5 16.9375 C-10 16 -10 16 -12.4375 13.8125 C-14.30215998 10.45611204 -14.6303761 8.7822566 -14 5 C-10.04366342 -0.93450486 -6.87680213 -1.81784318 0 0 Z " fill="#000000" transform="translate(180,311)"/>
</svg>
