<svg width="21" height="20" viewBox="0 0 21 20" fill="none" xmlns="http://www.w3.org/2000/svg">
<path d="M8 2.5H3.83333C3.61232 2.5 3.40036 2.5878 3.24408 2.74408C3.0878 2.90036 3 3.11232 3 3.33333V7.5C3 7.72101 3.0878 7.93298 3.24408 8.08926C3.40036 8.24554 3.61232 8.33333 3.83333 8.33333H8C8.22101 8.33333 8.43298 8.24554 8.58926 8.08926C8.74554 7.93298 8.83333 7.72101 8.83333 7.5V3.33333C8.83333 3.11232 8.74554 2.90036 8.58926 2.74408C8.43298 2.5878 8.22101 2.5 8 2.5ZM8 11.6667H3.83333C3.61232 11.6667 3.40036 11.7545 3.24408 11.9107C3.0878 12.067 3 12.279 3 12.5V16.6667C3 16.8877 3.0878 17.0996 3.24408 17.2559C3.40036 17.4122 3.61232 17.5 3.83333 17.5H8C8.22101 17.5 8.43298 17.4122 8.58926 17.2559C8.74554 17.0996 8.83333 16.8877 8.83333 16.6667V12.5C8.83333 12.279 8.74554 12.067 8.58926 11.9107C8.43298 11.7545 8.22101 11.6667 8 11.6667ZM15.0833 8.33333C15.4664 8.33333 15.8456 8.25789 16.1995 8.11132C16.5534 7.96474 16.8749 7.7499 17.1457 7.47906C17.4166 7.20822 17.6314 6.88669 17.778 6.53283C17.9246 6.17896 18 5.79969 18 5.41667C18 5.03364 17.9246 4.65437 17.778 4.30051C17.6314 3.94664 17.4166 3.62511 17.1457 3.35427C16.8749 3.08343 16.5534 2.86859 16.1995 2.72202C15.8456 2.57544 15.4664 2.5 15.0833 2.5C14.3098 2.5 13.5679 2.80729 13.0209 3.35427C12.474 3.90125 12.1667 4.64312 12.1667 5.41667C12.1667 6.19021 12.474 6.93208 13.0209 7.47906C13.5679 8.02604 14.3098 8.33333 15.0833 8.33333ZM17.1667 11.6667H13C12.779 11.6667 12.567 11.7545 12.4107 11.9107C12.2545 12.067 12.1667 12.279 12.1667 12.5V16.6667C12.1667 16.8877 12.2545 17.0996 12.4107 17.2559C12.567 17.4122 12.779 17.5 13 17.5H17.1667C17.3877 17.5 17.5996 17.4122 17.7559 17.2559C17.9122 17.0996 18 16.8877 18 16.6667V12.5C18 12.279 17.9122 12.067 17.7559 11.9107C17.5996 11.7545 17.3877 11.6667 17.1667 11.6667Z" stroke="#FCFCFC" stroke-width="2" stroke-linejoin="round"/>
</svg>
