<svg width="21" height="20" viewBox="0 0 21 20" fill="none" xmlns="http://www.w3.org/2000/svg">
<path d="M14.1307 11.668C14.1974 11.118 14.2474 10.568 14.2474 10.0013C14.2474 9.43464 14.1974 8.88464 14.1307 8.33464H16.9474C17.0807 8.86797 17.1641 9.4263 17.1641 10.0013C17.1641 10.5763 17.0807 11.1346 16.9474 11.668M12.6557 16.3013C13.1557 15.3763 13.5391 14.3763 13.8057 13.3346H16.2641C15.4567 14.7249 14.1758 15.778 12.6557 16.3013ZM12.4474 11.668H8.5474C8.46406 11.118 8.41406 10.568 8.41406 10.0013C8.41406 9.43464 8.46406 8.8763 8.5474 8.33464H12.4474C12.5224 8.8763 12.5807 9.43464 12.5807 10.0013C12.5807 10.568 12.5224 11.118 12.4474 11.668ZM10.4974 16.6346C9.80573 15.6346 9.2474 14.5263 8.90573 13.3346H12.0891C11.7474 14.5263 11.1891 15.6346 10.4974 16.6346ZM7.16406 6.66797H4.73073C5.5296 5.27383 6.80961 4.219 8.33073 3.7013C7.83073 4.6263 7.45573 5.6263 7.16406 6.66797ZM4.73073 13.3346H7.16406C7.45573 14.3763 7.83073 15.3763 8.33073 16.3013C6.81262 15.7782 5.5343 14.7248 4.73073 13.3346ZM4.0474 11.668C3.91406 11.1346 3.83073 10.5763 3.83073 10.0013C3.83073 9.4263 3.91406 8.86797 4.0474 8.33464H6.86406C6.7974 8.88464 6.7474 9.43464 6.7474 10.0013C6.7474 10.568 6.7974 11.118 6.86406 11.668M10.4974 3.35964C11.1891 4.35964 11.7474 5.4763 12.0891 6.66797H8.90573C9.2474 5.4763 9.80573 4.35964 10.4974 3.35964ZM16.2641 6.66797H13.8057C13.5445 5.63598 13.1583 4.63972 12.6557 3.7013C14.1891 4.2263 15.4641 5.28464 16.2641 6.66797ZM10.4974 1.66797C5.88906 1.66797 2.16406 5.41797 2.16406 10.0013C2.16406 12.2114 3.04204 14.3311 4.60484 15.8939C5.37866 16.6677 6.29732 17.2815 7.30837 17.7003C8.31941 18.1191 9.40305 18.3346 10.4974 18.3346C12.7075 18.3346 14.8271 17.4567 16.39 15.8939C17.9528 14.3311 18.8307 12.2114 18.8307 10.0013C18.8307 8.90695 18.6152 7.82332 18.1964 6.81227C17.7776 5.80123 17.1638 4.88257 16.39 4.10875C15.6161 3.33492 14.6975 2.7211 13.6864 2.30231C12.6754 1.88352 11.5917 1.66797 10.4974 1.66797Z" fill="#FCFCFC"/>
</svg>
