<svg width="17" height="16" viewBox="0 0 17 16" fill="none" xmlns="http://www.w3.org/2000/svg">
<path d="M8.4974 11.3346C7.57518 11.3346 6.78895 11.0095 6.13873 10.3593C5.48851 9.70908 5.16362 8.92308 5.16406 8.0013C5.16406 7.07908 5.48918 6.29286 6.1394 5.64264C6.78962 4.99242 7.57562 4.66753 8.4974 4.66797C9.41962 4.66797 10.2058 4.99308 10.8561 5.6433C11.5063 6.29353 11.8312 7.07953 11.8307 8.0013C11.8307 8.92353 11.5056 9.70975 10.8554 10.36C10.2052 11.0102 9.41918 11.3351 8.4974 11.3346ZM1.83073 8.66797C1.64184 8.66797 1.4834 8.60397 1.3554 8.47597C1.2274 8.34797 1.16362 8.18975 1.16406 8.0013C1.16406 7.81242 1.22806 7.65397 1.35606 7.52597C1.48406 7.39797 1.64229 7.33419 1.83073 7.33464H3.16406C3.35295 7.33464 3.5114 7.39864 3.6394 7.52664C3.7674 7.65464 3.83118 7.81286 3.83073 8.0013C3.83073 8.19019 3.76673 8.34864 3.63873 8.47664C3.51073 8.60464 3.35251 8.66842 3.16406 8.66797H1.83073ZM13.8307 8.66797C13.6418 8.66797 13.4834 8.60397 13.3554 8.47597C13.2274 8.34797 13.1636 8.18975 13.1641 8.0013C13.1641 7.81242 13.2281 7.65397 13.3561 7.52597C13.4841 7.39797 13.6423 7.33419 13.8307 7.33464H15.1641C15.353 7.33464 15.5114 7.39864 15.6394 7.52664C15.7674 7.65464 15.8312 7.81286 15.8307 8.0013C15.8307 8.19019 15.7667 8.34864 15.6387 8.47664C15.5107 8.60464 15.3525 8.66842 15.1641 8.66797H13.8307ZM8.4974 3.33464C8.30851 3.33464 8.15006 3.27064 8.02207 3.14264C7.89406 3.01464 7.83029 2.85642 7.83073 2.66797V1.33464C7.83073 1.14575 7.89473 0.987304 8.02273 0.859304C8.15073 0.731304 8.30895 0.667527 8.4974 0.667971C8.68629 0.667971 8.84473 0.731971 8.97273 0.859971C9.10073 0.987971 9.16451 1.14619 9.16407 1.33464V2.66797C9.16407 2.85686 9.10007 3.0153 8.97206 3.1433C8.84407 3.2713 8.68584 3.33508 8.4974 3.33464ZM8.4974 15.3346C8.30851 15.3346 8.15006 15.2706 8.02207 15.1426C7.89406 15.0146 7.83029 14.8564 7.83073 14.668V13.3346C7.83073 13.1457 7.89473 12.9873 8.02273 12.8593C8.15073 12.7313 8.30895 12.6675 8.4974 12.668C8.68629 12.668 8.84473 12.732 8.97273 12.86C9.10073 12.988 9.16451 13.1462 9.16407 13.3346V14.668C9.16407 14.8569 9.10007 15.0153 8.97206 15.1433C8.84407 15.2713 8.68584 15.3351 8.4974 15.3346ZM4.26406 4.7013L3.5474 4.0013C3.41406 3.87908 3.35006 3.72353 3.3554 3.53464C3.36073 3.34575 3.42473 3.18464 3.5474 3.0513C3.68073 2.91797 3.84184 2.8513 4.03073 2.8513C4.21962 2.8513 4.37518 2.91797 4.4974 3.0513L5.1974 3.76797C5.31962 3.9013 5.38073 4.05686 5.38073 4.23464C5.38073 4.41242 5.31962 4.56797 5.1974 4.7013C5.07518 4.83464 4.92251 4.89864 4.7394 4.8933C4.55629 4.88797 4.39784 4.82397 4.26406 4.7013ZM12.4974 12.9513L11.7974 12.2346C11.6752 12.1013 11.6141 11.9429 11.6141 11.7593C11.6141 11.5757 11.6752 11.4231 11.7974 11.3013C11.9196 11.168 12.0725 11.1042 12.2561 11.11C12.4396 11.1157 12.5978 11.1795 12.7307 11.3013L13.4474 12.0013C13.5807 12.1235 13.6447 12.2791 13.6394 12.468C13.6341 12.6569 13.5701 12.818 13.4474 12.9513C13.3141 13.0846 13.153 13.1513 12.9641 13.1513C12.7752 13.1513 12.6196 13.0846 12.4974 12.9513ZM11.7974 4.7013C11.6641 4.57908 11.6001 4.42642 11.6054 4.2433C11.6107 4.06019 11.6747 3.90175 11.7974 3.76797L12.4974 3.0513C12.6196 2.91797 12.7752 2.85397 12.9641 2.8593C13.153 2.86464 13.3141 2.92864 13.4474 3.0513C13.5807 3.18464 13.6474 3.34575 13.6474 3.53464C13.6474 3.72353 13.5807 3.87908 13.4474 4.0013L12.7307 4.7013C12.5974 4.82353 12.4418 4.88464 12.2641 4.88464C12.0863 4.88464 11.9307 4.82353 11.7974 4.7013ZM3.5474 12.9513C3.41406 12.818 3.3474 12.6569 3.3474 12.468C3.3474 12.2791 3.41406 12.1235 3.5474 12.0013L4.26406 11.3013C4.3974 11.1791 4.55562 11.118 4.73873 11.118C4.92184 11.118 5.07473 11.1791 5.1974 11.3013C5.33073 11.4235 5.39473 11.5764 5.3894 11.76C5.38406 11.9435 5.32007 12.1017 5.1974 12.2346L4.4974 12.9513C4.37518 13.0846 4.21962 13.1486 4.03073 13.1433C3.84184 13.138 3.68073 13.074 3.5474 12.9513Z" fill="#F0F1F3"/>
</svg>
