<svg width="20" height="21" viewBox="0 0 20 21" fill="none" xmlns="http://www.w3.org/2000/svg">
<path d="M2.5 11.582V18.2487M2.5 14.4987H5.41667L7.08333 11.9987M2.91667 9.08203L13.9475 16.4358C14.0131 16.4795 14.0899 16.5037 14.1687 16.5055C14.2475 16.5074 14.3253 16.4868 14.3929 16.4462L18.3333 14.082" stroke="#8AC63F" stroke-width="2" stroke-linecap="round" stroke-linejoin="round"/>
<path d="M2.95139 6.04968C2.89833 6.01436 2.85408 5.96733 2.82205 5.91222C2.79002 5.8571 2.77106 5.79538 2.76663 5.73178C2.7622 5.66819 2.77243 5.60443 2.79651 5.54541C2.8206 5.48639 2.8579 5.43369 2.90556 5.39135L6.01389 2.62885C6.08226 2.568 6.16877 2.53136 6.26004 2.52458C6.35132 2.5178 6.44228 2.54127 6.51889 2.59135L17.796 9.97968C17.8542 10.0178 17.902 10.07 17.9348 10.1313C17.9677 10.1927 17.9847 10.2613 17.9843 10.3309C17.9838 10.4005 17.9659 10.4689 17.9322 10.5299C17.8985 10.5908 17.8501 10.6423 17.7914 10.6797L13.9814 13.1047C13.9132 13.148 13.8339 13.1707 13.7531 13.1698C13.6724 13.1689 13.5936 13.1445 13.5264 13.0997L2.95139 6.04968Z" stroke="#8AC63F" stroke-width="2"/>
</svg>
