<svg width="30" height="30" viewBox="0 0 30 30" fill="none" xmlns="http://www.w3.org/2000/svg">
<path fill-rule="evenodd" clip-rule="evenodd" d="M8.375 15C8.375 14.4477 8.82272 14 9.375 14L20.625 14C21.1773 14 21.625 14.4477 21.625 15C21.625 15.5523 21.1773 16 20.625 16L9.375 16C8.82272 16 8.375 15.5523 8.375 15ZM25.5 15C25.5 9.20101 20.799 4.5 15 4.5C9.20101 4.5 4.5 9.20101 4.5 15C4.5 20.799 9.20101 25.5 15 25.5C20.799 25.5 25.5 20.799 25.5 15ZM15 2.5C21.9036 2.5 27.5 8.09644 27.5 15C27.5 21.9036 21.9036 27.5 15 27.5C8.09644 27.5 2.5 21.9036 2.5 15C2.5 8.09644 8.09644 2.5 15 2.5Z" fill="#657496"/>
</svg>
