<svg width="17" height="16" viewBox="0 0 17 16" fill="none" xmlns="http://www.w3.org/2000/svg">
<g clip-path="url(#clip0_1499_10121)">
<path d="M10.79 0.391931L8.67 2.51193C8.15 3.03193 8.15 3.8786 8.67 4.3986L9.49667 5.22526L9.02333 5.6986L8.19667 4.86526C7.67667 4.34526 6.83 4.34526 6.31 4.86526L5.36333 5.81193C4.84333 6.33193 4.84333 7.1786 5.36333 7.6986L6.19 8.52526L5.71667 8.9986L4.89667 8.16526C4.37667 7.64526 3.53 7.64526 3.01 8.16526L0.89 10.2853C0.37 10.8053 0.37 11.6519 0.89 12.1719L3.25 14.5319C3.77 15.0519 4.61667 15.0519 5.13667 14.5319L7.25667 12.4119C7.77667 11.8919 7.77667 11.0453 7.25667 10.5253L6.43 9.6986L6.90333 9.22526L7.73 10.0519C8.25 10.5719 9.09667 10.5719 9.61667 10.0519L10.5567 9.11193C11.0767 8.59193 11.0767 7.74526 10.5567 7.22526L9.72333 6.3986L10.1967 5.92526L11.0233 6.75193C11.5433 7.27193 12.39 7.27193 12.91 6.75193L15.03 4.63193C15.55 4.11193 15.55 3.26526 15.03 2.74526L12.67 0.385264C12.15 -0.134736 11.31 -0.134736 10.79 0.391931ZM4.89667 12.8786L4.19 13.5853L1.83 11.2319L2.53667 10.5253L4.89667 12.8786ZM6.31 11.4653L5.60333 12.1719L3.24333 9.81193L3.95 9.10526L6.31 11.4653ZM12.67 5.10526L11.9633 5.81193L9.60333 3.45193L10.31 2.74526L12.67 5.10526ZM14.0833 3.69193L13.3767 4.3986L11.0167 2.0386L11.73 1.33193L14.0833 3.69193ZM9.83 13.9986V15.3319C11.4213 15.3319 12.9474 14.6998 14.0726 13.5746C15.1979 12.4494 15.83 10.9232 15.83 9.33193H14.4967C14.4967 11.9119 12.41 13.9986 9.83 13.9986ZM9.83 11.3319V12.6653C11.67 12.6653 13.1633 11.1719 13.1633 9.33193H11.83C11.83 10.4386 10.9367 11.3319 9.83 11.3319Z" fill="#FBFCFF"/>
</g>
<defs>
<clipPath id="clip0_1499_10121">
<rect width="16" height="16" fill="white" transform="translate(0.5)"/>
</clipPath>
</defs>
</svg>
