<svg width="21" height="21" viewBox="0 0 21 21" fill="none" xmlns="http://www.w3.org/2000/svg">
<path d="M17.0831 11.0485C16.9495 10.8965 16.8758 10.701 16.8758 10.4985C16.8758 10.2961 16.9495 10.1006 17.0831 9.94853L18.1498 8.74853C18.2673 8.61742 18.3403 8.45245 18.3582 8.27729C18.3762 8.10212 18.3382 7.92577 18.2498 7.77353L16.5831 4.8902C16.4955 4.73813 16.3622 4.61759 16.202 4.54577C16.0419 4.47394 15.8632 4.45449 15.6914 4.4902L14.1248 4.80686C13.9254 4.84805 13.7179 4.81485 13.5413 4.71353C13.3648 4.61221 13.2314 4.44977 13.1664 4.25686L12.6581 2.73186C12.6022 2.56635 12.4957 2.42258 12.3536 2.3209C12.2115 2.21921 12.0411 2.16474 11.8664 2.1652H8.53308C8.35136 2.15571 8.17153 2.20597 8.02105 2.30829C7.87058 2.41061 7.75773 2.55938 7.69975 2.73186L7.23308 4.25686C7.16808 4.44977 7.03473 4.61221 6.85818 4.71353C6.68163 4.81485 6.4741 4.84805 6.27475 4.80686L4.66642 4.4902C4.50354 4.46718 4.3375 4.49288 4.18921 4.56406C4.04091 4.63524 3.917 4.74872 3.83308 4.8902L2.16642 7.77353C2.07572 7.92407 2.03494 8.09943 2.0499 8.27455C2.06487 8.44966 2.13482 8.61556 2.24975 8.74853L3.30808 9.94853C3.44168 10.1006 3.51536 10.2961 3.51536 10.4985C3.51536 10.701 3.44168 10.8965 3.30808 11.0485L2.24975 12.2485C2.13482 12.3815 2.06487 12.5474 2.0499 12.7225C2.03494 12.8976 2.07572 13.073 2.16642 13.2235L3.83308 16.1069C3.92067 16.2589 4.05402 16.3795 4.21413 16.4513C4.37424 16.5231 4.55294 16.5426 4.72475 16.5069L6.29142 16.1902C6.49077 16.149 6.6983 16.1822 6.87484 16.2835C7.05139 16.3849 7.18475 16.5473 7.24975 16.7402L7.75808 18.2652C7.81607 18.4377 7.92891 18.5864 8.07939 18.6888C8.22986 18.7911 8.4097 18.8413 8.59142 18.8319H11.9248C12.0995 18.8323 12.2699 18.7778 12.4119 18.6762C12.554 18.5745 12.6605 18.4307 12.7164 18.2652L13.2248 16.7402C13.2898 16.5473 13.4231 16.3849 13.5997 16.2835C13.7762 16.1822 13.9837 16.149 14.1831 16.1902L15.7498 16.5069C15.9216 16.5426 16.1003 16.5231 16.2604 16.4513C16.4205 16.3795 16.5538 16.2589 16.6414 16.1069L18.3081 13.2235C18.3966 13.0713 18.4345 12.8949 18.4166 12.7198C18.3986 12.5446 18.3256 12.3796 18.2081 12.2485L17.0831 11.0485ZM15.8414 12.1652L16.5081 12.9152L15.4414 14.7652L14.4581 14.5652C13.8579 14.4425 13.2336 14.5445 12.7036 14.8517C12.1736 15.1589 11.7749 15.6501 11.5831 16.2319L11.2664 17.1652H9.13308L8.83308 16.2152C8.6413 15.6334 8.24257 15.1423 7.71259 14.835C7.18261 14.5278 6.55827 14.4258 5.95808 14.5485L4.97475 14.7485L3.89142 12.9069L4.55808 12.1569C4.96805 11.6985 5.19469 11.1051 5.19469 10.4902C5.19469 9.87525 4.96805 9.28188 4.55808 8.82353L3.89142 8.07353L4.95808 6.2402L5.94142 6.4402C6.5416 6.56288 7.16594 6.46093 7.69592 6.15369C8.2259 5.84646 8.62463 5.35533 8.81642 4.77353L9.13308 3.83186H11.2664L11.5831 4.78186C11.7749 5.36366 12.1736 5.85479 12.7036 6.16203C13.2336 6.46926 13.8579 6.57121 14.4581 6.44853L15.4414 6.24853L16.5081 8.09853L15.8414 8.84853C15.4361 9.30583 15.2122 9.89576 15.2122 10.5069C15.2122 11.118 15.4361 11.7079 15.8414 12.1652ZM10.1998 7.1652C9.54048 7.1652 8.89601 7.36069 8.34785 7.72696C7.79969 8.09324 7.37244 8.61383 7.12015 9.22292C6.86786 9.83201 6.80185 10.5022 6.93047 11.1488C7.05908 11.7954 7.37655 12.3894 7.84273 12.8556C8.3089 13.3217 8.90285 13.6392 9.54945 13.7678C10.1961 13.8964 10.8663 13.8304 11.4754 13.5781C12.0844 13.3258 12.605 12.8986 12.9713 12.3504C13.3376 11.8023 13.5331 11.1578 13.5331 10.4985C13.5331 9.61447 13.1819 8.76663 12.5568 8.14151C11.9317 7.51639 11.0838 7.1652 10.1998 7.1652ZM10.1998 12.1652C9.87012 12.1652 9.54788 12.0674 9.2738 11.8843C8.99972 11.7012 8.7861 11.4409 8.65995 11.1363C8.53381 10.8318 8.5008 10.4967 8.56511 10.1734C8.62942 9.85008 8.78815 9.55311 9.02124 9.32002C9.25433 9.08693 9.5513 8.9282 9.8746 8.86389C10.1979 8.79958 10.533 8.83258 10.8376 8.95873C11.1421 9.08488 11.4024 9.2985 11.5855 9.57258C11.7687 9.84666 11.8664 10.1689 11.8664 10.4985C11.8664 10.9406 11.6908 11.3645 11.3783 11.677C11.0657 11.9896 10.6418 12.1652 10.1998 12.1652Z" fill="#FCFCFC"/>
</svg>
