<svg width="18" height="18" viewBox="0 0 18 18" fill="none" xmlns="http://www.w3.org/2000/svg">
<path d="M16.36 2.44H13V1.16C13 1.072 12.928 1 12.84 1H11.72C11.632 1 11.56 1.072 11.56 1.16V2.44H6.44V1.16C6.44 1.072 6.368 1 6.28 1H5.16C5.072 1 5 1.072 5 1.16V2.44H1.64C1.286 2.44 1 2.726 1 3.08V16.36C1 16.714 1.286 17 1.64 17H16.36C16.714 17 17 16.714 17 16.36V3.08C17 2.726 16.714 2.44 16.36 2.44ZM15.56 15.56H2.44V7.96H15.56V15.56ZM2.44 6.6V3.88H5V4.84C5 4.928 5.072 5 5.16 5H6.28C6.368 5 6.44 4.928 6.44 4.84V3.88H11.56V4.84C11.56 4.928 11.632 5 11.72 5H12.84C12.928 5 13 4.928 13 4.84V3.88H15.56V6.6H2.44Z" fill="#F1F1F1"/>
</svg>
