<svg width="20" height="20" viewBox="0 0 20 20" fill="none" xmlns="http://www.w3.org/2000/svg">
<path d="M8.88828 1.23051C6.26922 3.98625 5.60813 8.2202 7.60285 11.6784C9.59777 15.1372 13.5924 16.6817 17.2867 15.7886L8.88824 1.23047L8.88828 1.23051ZM17.9824 4.43969C17.7789 4.44489 17.58 4.50114 17.4039 4.60328C16.9624 4.85836 16.7391 5.34684 16.8008 5.82273L13.0387 6.96531L14.3997 9.32254L17.2684 6.63449C17.6494 6.92762 18.1846 6.97926 18.627 6.72363C19.2126 6.38523 19.4128 5.63684 19.075 5.05125C18.8428 4.64871 18.4166 4.42824 17.9824 4.43969ZM5.79984 8.63891L4.75859 8.82203L5.17609 11.1865L3.53301 12.7246L4.26301 13.9795L6.55426 13.2836L6.6775 13.4461L2.09375 19.2627H5.1541L8.48785 18.4217L10.5459 19.2627H12.521L12.2451 17.4744L12.2768 17.4658L12.2389 17.4414L12.0534 16.2414C11.787 16.149 11.5248 16.0435 11.2673 15.9277L11.4174 16.903L9.42523 15.5969L10.1577 15.3393C9.90177 15.1804 9.65366 15.0093 9.41418 14.8266L8.65734 15.0928L7.10949 14.0771L7.33656 13.7891L7.92859 13.4118C7.56949 12.9848 7.24884 12.5269 6.97039 12.0434C6.34539 10.9598 5.96148 9.80516 5.79969 8.63887L5.79984 8.63891ZM6.65555 14.6534L7.79203 15.3979L5.4068 16.2377L6.65562 14.6534H6.65555ZM8.55867 15.9021L10.4861 17.1655L8.5416 17.6562L6.24297 16.7175L8.55859 15.902L8.55867 15.9021ZM4.85504 16.9385L5.0784 17.0288L7.34891 17.9565L3.23516 18.9942L4.85504 16.9385ZM11.5335 17.6538L11.7361 18.96L9.68043 18.1213L11.47 17.6696L11.5335 17.6538Z" fill="#0A8D66"/>
</svg>
