<svg width="22" height="21" viewBox="0 0 22 21" fill="none" xmlns="http://www.w3.org/2000/svg">
<g clip-path="url(#clip0_1087_19583)">
<path d="M11.8242 19.6875C10.8126 19.688 9.82911 19.3545 9.02641 18.7388C8.2237 18.1231 7.64668 17.2597 7.38488 16.2825C7.12309 15.3054 7.19117 14.2691 7.57856 13.3346C7.96595 12.4001 8.65099 11.6196 9.52734 11.1143L9.85547 10.9253V3.28125C9.85367 2.81689 10.0165 2.36691 10.3151 2.01124C10.6136 1.65557 11.0286 1.41723 11.4862 1.33854C11.9439 1.25985 12.4146 1.34591 12.8148 1.58144C13.215 1.81696 13.5188 2.1867 13.6722 2.625H11.8242V3.9375H13.793V5.25H11.8242V6.5625H13.793V7.875H11.8242V9.1875H13.793V10.9253L14.1211 11.1143C14.9974 11.6196 15.6825 12.4001 16.0699 13.3346C16.4573 14.2691 16.5253 15.3054 16.2636 16.2825C16.0018 17.2597 15.4247 18.1231 14.622 18.7388C13.8193 19.3545 12.8358 19.688 11.8242 19.6875ZM15.1055 10.1824V3.28125C15.1055 2.41101 14.7598 1.57641 14.1444 0.961056C13.5291 0.345702 12.6945 0 11.8242 0C10.954 0 10.1194 0.345702 9.50402 0.961056C8.88867 1.57641 8.54297 2.41101 8.54297 3.28125V10.1824C7.4894 10.8863 6.69014 11.9104 6.26325 13.1035C5.83636 14.2965 5.80446 15.5952 6.17227 16.8077C6.54009 18.0203 7.2881 19.0824 8.30585 19.8372C9.3236 20.592 10.5571 20.9996 11.8242 20.9996C13.0913 20.9996 14.3248 20.592 15.3426 19.8372C16.3603 19.0824 17.1084 18.0203 17.4762 16.8077C17.844 15.5952 17.8121 14.2965 17.3852 13.1035C16.9583 11.9104 16.159 10.8863 15.1055 10.1824Z" fill="#8AC63F"/>
<path d="M11.8242 11.8125C12.6945 11.8125 13.5291 12.1582 14.1444 12.7736C14.7598 13.3889 15.1055 14.2235 15.1055 15.0938C15.1055 15.964 14.7598 16.7986 14.1444 17.4139C13.5291 18.0293 12.6945 18.375 11.8242 18.375C10.954 18.375 10.1194 18.0293 9.50402 17.4139C8.88867 16.7986 8.54297 15.964 8.54297 15.0938C8.54297 14.2235 8.88867 13.3889 9.50402 12.7736C10.1194 12.1582 10.954 11.8125 11.8242 11.8125Z" fill="#8AC63F"/>
</g>
<defs>
<clipPath id="clip0_1087_19583">
<rect width="21" height="21" fill="white" transform="translate(0.667969)"/>
</clipPath>
</defs>
</svg>
