<svg width="20" height="20" viewBox="0 0 20 20" fill="none" xmlns="http://www.w3.org/2000/svg">
<path d="M17.7057 16.25C17.8641 16.25 18.0165 16.3102 18.1322 16.4183C18.2479 16.5264 18.3183 16.6744 18.3291 16.8324C18.3399 16.9904 18.2903 17.1466 18.1904 17.2694C18.0904 17.3923 17.9476 17.4726 17.7907 17.4942L17.7057 17.5H2.28906C2.13071 17.5 1.97828 17.4398 1.86257 17.3317C1.74686 17.2236 1.6765 17.0756 1.66571 16.9176C1.65491 16.7596 1.70449 16.6034 1.80442 16.4806C1.90435 16.3577 2.04719 16.2774 2.20406 16.2558L2.28906 16.25H17.7057ZM16.4516 2.5C16.9488 2.5 17.4258 2.69754 17.7774 3.04917C18.129 3.40081 18.3266 3.87772 18.3266 4.375V12.2958C18.3266 12.7931 18.129 13.27 17.7774 13.6217C17.4258 13.9733 16.9488 14.1708 16.4516 14.1708H11.0174C10.9688 14.4054 10.8408 14.6161 10.655 14.7673C10.4692 14.9186 10.237 15.0011 9.9974 15.0011C9.75782 15.0011 9.52558 14.9186 9.33978 14.7673C9.15399 14.6161 9.026 14.4054 8.9774 14.1708H3.53906C3.04178 14.1708 2.56487 13.9733 2.21324 13.6217C1.86161 13.27 1.66406 12.7931 1.66406 12.2958V4.375C1.66406 3.87772 1.86161 3.40081 2.21324 3.04917C2.56487 2.69754 3.04178 2.5 3.53906 2.5H16.4516ZM14.3724 10.4167H5.6224L5.5374 10.4225C5.3878 10.4431 5.25072 10.5171 5.15149 10.6309C5.05226 10.7448 4.99759 10.8907 4.99759 11.0417C4.99759 11.1927 5.05226 11.3386 5.15149 11.4524C5.25072 11.5662 5.3878 11.6403 5.5374 11.6608L5.6224 11.6667H14.3724L14.4574 11.6608C14.607 11.6403 14.7441 11.5662 14.8433 11.4524C14.9425 11.3386 14.9972 11.1927 14.9972 11.0417C14.9972 10.8907 14.9425 10.7448 14.8433 10.6309C14.7441 10.5171 14.607 10.4431 14.4574 10.4225L14.3724 10.4167ZM13.7474 7.5C13.5264 7.5 13.3144 7.5878 13.1581 7.74408C13.0019 7.90036 12.9141 8.11232 12.9141 8.33333C12.9141 8.55435 13.0019 8.76631 13.1581 8.92259C13.3144 9.07887 13.5264 9.16667 13.7474 9.16667C13.9684 9.16667 14.1804 9.07887 14.3367 8.92259C14.4929 8.76631 14.5807 8.55435 14.5807 8.33333C14.5807 8.11232 14.4929 7.90036 14.3367 7.74408C14.1804 7.5878 13.9684 7.5 13.7474 7.5ZM8.75156 7.5C8.53055 7.5 8.31859 7.5878 8.16231 7.74408C8.00603 7.90036 7.91823 8.11232 7.91823 8.33333C7.91823 8.55435 8.00603 8.76631 8.16231 8.92259C8.31859 9.07887 8.53055 9.16667 8.75156 9.16667C8.97258 9.16667 9.18454 9.07887 9.34082 8.92259C9.4971 8.76631 9.5849 8.55435 9.5849 8.33333C9.5849 8.11232 9.4971 7.90036 9.34082 7.74408C9.18454 7.5878 8.97258 7.5 8.75156 7.5ZM6.25156 7.5C6.03055 7.5 5.81859 7.5878 5.66231 7.74408C5.50603 7.90036 5.41823 8.11232 5.41823 8.33333C5.41823 8.55435 5.50603 8.76631 5.66231 8.92259C5.81859 9.07887 6.03055 9.16667 6.25156 9.16667C6.47258 9.16667 6.68454 9.07887 6.84082 8.92259C6.9971 8.76631 7.0849 8.55435 7.0849 8.33333C7.0849 8.11232 6.9971 7.90036 6.84082 7.74408C6.68454 7.5878 6.47258 7.5 6.25156 7.5ZM11.2516 7.5C11.0305 7.5 10.8186 7.5878 10.6623 7.74408C10.506 7.90036 10.4182 8.11232 10.4182 8.33333C10.4182 8.55435 10.506 8.76631 10.6623 8.92259C10.8186 9.07887 11.0305 9.16667 11.2516 9.16667C11.4726 9.16667 11.6845 9.07887 11.8408 8.92259C11.9971 8.76631 12.0849 8.55435 12.0849 8.33333C12.0849 8.11232 11.9971 7.90036 11.8408 7.74408C11.6845 7.5878 11.4726 7.5 11.2516 7.5ZM4.9974 5C4.77638 5 4.56442 5.0878 4.40814 5.24408C4.25186 5.40036 4.16406 5.61232 4.16406 5.83333C4.16406 6.05435 4.25186 6.26631 4.40814 6.42259C4.56442 6.57887 4.77638 6.66667 4.9974 6.66667C5.21841 6.66667 5.43037 6.57887 5.58665 6.42259C5.74293 6.26631 5.83073 6.05435 5.83073 5.83333C5.83073 5.61232 5.74293 5.40036 5.58665 5.24408C5.43037 5.0878 5.21841 5 4.9974 5ZM7.49323 5C7.27222 5 7.06025 5.0878 6.90397 5.24408C6.74769 5.40036 6.6599 5.61232 6.6599 5.83333C6.6599 6.05435 6.74769 6.26631 6.90397 6.42259C7.06025 6.57887 7.27222 6.66667 7.49323 6.66667C7.71424 6.66667 7.9262 6.57887 8.08248 6.42259C8.23876 6.26631 8.32656 6.05435 8.32656 5.83333C8.32656 5.61232 8.23876 5.40036 8.08248 5.24408C7.9262 5.0878 7.71424 5 7.49323 5ZM9.99323 5C9.77221 5 9.56025 5.0878 9.40397 5.24408C9.24769 5.40036 9.1599 5.61232 9.1599 5.83333C9.1599 6.05435 9.24769 6.26631 9.40397 6.42259C9.56025 6.57887 9.77221 6.66667 9.99323 6.66667C10.2142 6.66667 10.4262 6.57887 10.5825 6.42259C10.7388 6.26631 10.8266 6.05435 10.8266 5.83333C10.8266 5.61232 10.7388 5.40036 10.5825 5.24408C10.4262 5.0878 10.2142 5 9.99323 5ZM12.4932 5C12.2722 5 12.0603 5.0878 11.904 5.24408C11.7477 5.40036 11.6599 5.61232 11.6599 5.83333C11.6599 6.05435 11.7477 6.26631 11.904 6.42259C12.0603 6.57887 12.2722 6.66667 12.4932 6.66667C12.7142 6.66667 12.9262 6.57887 13.0825 6.42259C13.2388 6.26631 13.3266 6.05435 13.3266 5.83333C13.3266 5.61232 13.2388 5.40036 13.0825 5.24408C12.9262 5.0878 12.7142 5 12.4932 5ZM14.9932 5C14.7722 5 14.5603 5.0878 14.404 5.24408C14.2477 5.40036 14.1599 5.61232 14.1599 5.83333C14.1599 6.05435 14.2477 6.26631 14.404 6.42259C14.5603 6.57887 14.7722 6.66667 14.9932 6.66667C15.2142 6.66667 15.4262 6.57887 15.5825 6.42259C15.7388 6.26631 15.8266 6.05435 15.8266 5.83333C15.8266 5.61232 15.7388 5.40036 15.5825 5.24408C15.4262 5.0878 15.2142 5 14.9932 5Z" fill="#FE3232"/>
</svg>
