<svg width="17" height="16" viewBox="0 0 17 16" fill="none" xmlns="http://www.w3.org/2000/svg">
<path d="M8.50245 1.33203C8.62328 1.33204 8.74001 1.37579 8.83107 1.45521C8.92213 1.53463 8.98135 1.64433 8.99778 1.76403L9.00245 1.83203V3.02403C10.1503 3.13932 11.2229 3.64796 12.0385 4.46373C12.8542 5.2795 13.3627 6.3522 13.4778 7.50003L13.5025 7.4987H14.6691C14.7958 7.49874 14.9177 7.54686 15.0103 7.63335C15.1029 7.71983 15.1592 7.83823 15.1678 7.96462C15.1764 8.09101 15.1368 8.21596 15.0568 8.31423C14.9769 8.4125 14.8626 8.47676 14.7371 8.49403L14.6691 8.4987L13.4771 8.49803C13.362 9.64596 12.8534 10.7187 12.0376 11.5345C11.2218 12.3503 10.149 12.8589 9.00112 12.974L9.00245 12.9987V14.1654C9.00241 14.292 8.95429 14.414 8.8678 14.5066C8.78132 14.5991 8.66292 14.6554 8.53653 14.664C8.41014 14.6727 8.28519 14.633 8.18692 14.5531C8.08865 14.4731 8.02439 14.3589 8.00712 14.2334L8.00245 14.1654L8.00312 12.9734C6.85519 12.8582 5.7824 12.3496 4.96662 11.5339C4.15084 10.7181 3.64226 9.64529 3.52712 8.49736L3.50245 8.4987H2.33579C2.2091 8.49866 2.08716 8.45053 1.99459 8.36405C1.90202 8.27756 1.84574 8.15916 1.8371 8.03278C1.82847 7.90639 1.86813 7.78144 1.94807 7.68317C2.02802 7.58489 2.14229 7.52063 2.26779 7.50336L2.33579 7.4987H3.52779C3.64308 6.35089 4.15171 5.27825 4.96748 4.46261C5.78325 3.64696 6.85596 3.13848 8.00378 3.02336L8.00245 2.9987V1.83203C8.00245 1.69942 8.05513 1.57225 8.1489 1.47848C8.24267 1.38471 8.36984 1.33203 8.50245 1.33203ZM8.50245 3.9987C7.44159 3.9987 6.42417 4.42013 5.67402 5.17027C4.92388 5.92042 4.50245 6.93783 4.50245 7.9987C4.50245 9.05956 4.92388 10.077 5.67402 10.8271C6.42417 11.5773 7.44159 11.9987 8.50245 11.9987C9.56332 11.9987 10.5807 11.5773 11.3309 10.8271C12.081 10.077 12.5025 9.05956 12.5025 7.9987C12.5025 6.93783 12.081 5.92042 11.3309 5.17027C10.5807 4.42013 9.56332 3.9987 8.50245 3.9987ZM8.50245 5.33203C9.2097 5.33203 9.88797 5.61298 10.3881 6.11308C10.8882 6.61318 11.1691 7.29145 11.1691 7.9987C11.1691 8.70594 10.8882 9.38422 10.3881 9.88432C9.88797 10.3844 9.2097 10.6654 8.50245 10.6654C7.79521 10.6654 7.11693 10.3844 6.61683 9.88432C6.11674 9.38422 5.83578 8.70594 5.83578 7.9987C5.83578 7.29145 6.11674 6.61318 6.61683 6.11308C7.11693 5.61298 7.79521 5.33203 8.50245 5.33203Z" fill="#FBFCFF"/>
</svg>
