<svg width="20" height="20" viewBox="0 0 20 20" fill="none" xmlns="http://www.w3.org/2000/svg">
<path d="M16.6615 6.66536H14.1615V3.33203H2.49479C1.56979 3.33203 0.828125 4.0737 0.828125 4.9987V14.1654H2.49479C2.49479 15.5487 3.61146 16.6654 4.99479 16.6654C6.37813 16.6654 7.49479 15.5487 7.49479 14.1654H12.4948C12.4948 15.5487 13.6115 16.6654 14.9948 16.6654C16.3781 16.6654 17.4948 15.5487 17.4948 14.1654H19.1615V9.9987L16.6615 6.66536ZM4.99479 15.4154C4.30313 15.4154 3.74479 14.857 3.74479 14.1654C3.74479 13.4737 4.30313 12.9154 4.99479 12.9154C5.68646 12.9154 6.24479 13.4737 6.24479 14.1654C6.24479 14.857 5.68646 15.4154 4.99479 15.4154ZM10.8281 9.16536H4.16146V7.4987H10.8281V9.16536ZM14.9948 15.4154C14.3031 15.4154 13.7448 14.857 13.7448 14.1654C13.7448 13.4737 14.3031 12.9154 14.9948 12.9154C15.6865 12.9154 16.2448 13.4737 16.2448 14.1654C16.2448 14.857 15.6865 15.4154 14.9948 15.4154ZM14.1615 9.9987V7.91536H16.2448L17.8781 9.9987H14.1615Z" fill="#F0F0F0"/>
</svg>
