<svg width="17" height="16" viewBox="0 0 17 16" fill="none" xmlns="http://www.w3.org/2000/svg">
<g clip-path="url(#clip0_1499_10116)">
<path d="M8.50138 1.32812C7.29452 1.32835 6.11035 1.65617 5.0752 2.27663C4.04005 2.89709 3.19273 3.78692 2.62365 4.85118C2.05456 5.91544 1.78505 7.11423 1.84386 8.31966C1.90267 9.52508 2.28759 10.6919 2.95758 11.6958C3.62756 12.6996 4.55747 13.5027 5.6481 14.0194C6.73874 14.5362 7.94919 14.7472 9.15034 14.6299C10.3515 14.5127 11.4983 14.0715 12.4684 13.3536C13.4385 12.6357 14.1955 11.6679 14.6587 10.5535C14.886 10.0068 14.3414 9.45746 13.7934 9.68013C12.8542 10.0606 11.8113 10.0998 10.8462 9.79108C9.88099 9.48232 9.05456 8.84508 8.51054 7.99014C7.96653 7.1352 7.73934 6.11664 7.86848 5.11156C7.99761 4.10648 8.47491 3.17844 9.21738 2.48879L9.26871 2.43546C9.63605 2.01546 9.34405 1.33346 8.76338 1.33346H8.58605L8.54071 1.32946L8.50071 1.32812H8.50138Z" fill="#F0F1F3"/>
</g>
<defs>
<clipPath id="clip0_1499_10116">
<rect width="16" height="16" fill="white" transform="translate(0.5)"/>
</clipPath>
</defs>
</svg>
