<svg width="16" height="16" viewBox="0 0 16 16" fill="none" xmlns="http://www.w3.org/2000/svg">
<path fill-rule="evenodd" clip-rule="evenodd" d="M7.2001 2.80011C6.03315 2.80011 4.91399 3.26368 4.08883 4.08885C3.26367 4.91401 2.8001 6.03316 2.8001 7.20011C2.8001 8.36707 3.26367 9.48622 4.08883 10.3114C4.91399 11.1365 6.03315 11.6001 7.2001 11.6001C8.36705 11.6001 9.48621 11.1365 10.3114 10.3114C11.1365 9.48622 11.6001 8.36707 11.6001 7.20011C11.6001 6.03316 11.1365 4.91401 10.3114 4.08885C9.48621 3.26368 8.36705 2.80011 7.2001 2.80011ZM1.6001 7.20011C1.60017 6.30465 1.81499 5.42226 2.22652 4.62696C2.63805 3.83167 3.23431 3.14666 3.96526 2.62939C4.69621 2.11213 5.54056 1.77769 6.42746 1.65414C7.31436 1.5306 8.21795 1.62153 9.06245 1.91933C9.90694 2.21713 10.6677 2.7131 11.2809 3.36565C11.8942 4.01819 12.342 4.80828 12.5868 5.66963C12.8316 6.53098 12.8662 7.43848 12.6879 8.316C12.5095 9.19352 12.1233 10.0155 11.5617 10.7129L14.2241 13.3761C14.283 13.431 14.3303 13.4973 14.3631 13.5709C14.3959 13.6445 14.4135 13.7239 14.415 13.8045C14.4164 13.8851 14.4016 13.9651 14.3714 14.0398C14.3412 14.1145 14.2963 14.1824 14.2393 14.2393C14.1824 14.2963 14.1145 14.3412 14.0398 14.3714C13.9651 14.4016 13.885 14.4164 13.8045 14.415C13.7239 14.4136 13.6445 14.3959 13.5709 14.3631C13.4973 14.3303 13.431 14.2831 13.3761 14.2241L10.7129 11.5617C9.89013 12.2244 8.89669 12.6409 7.8473 12.763C6.79792 12.8851 5.7354 12.7078 4.78246 12.2517C3.82952 11.7956 3.02503 11.0793 2.46192 10.1854C1.8988 9.29152 1.60003 8.25658 1.6001 7.20011Z" fill="#8F9193"/>
</svg>
