<svg width="20" height="20" viewBox="0 0 20 20" fill="none" xmlns="http://www.w3.org/2000/svg">
<path d="M13.3281 5L15.8281 8.33333H17.4948C18.4198 8.33333 19.1615 9.075 19.1615 10V12.5H17.4948C17.4948 13.163 17.2314 13.7989 16.7626 14.2678C16.2937 14.7366 15.6578 15 14.9948 15C14.3318 15 13.6959 14.7366 13.227 14.2678C12.7582 13.7989 12.4948 13.163 12.4948 12.5H7.49479C7.49479 13.163 7.2314 13.7989 6.76256 14.2678C6.29372 14.7366 5.65783 15 4.99479 15C4.33175 15 3.69587 14.7366 3.22702 14.2678C2.75818 13.7989 2.49479 13.163 2.49479 12.5H0.828125V10C0.828125 9.075 1.56979 8.33333 2.49479 8.33333L4.99479 5H13.3281ZM8.74479 6.25H5.61979L4.04479 8.33333H8.74479V6.25ZM9.99479 6.25V8.33333H14.2781L12.7031 6.25H9.99479ZM4.99479 11.25C4.66327 11.25 4.34533 11.3817 4.11091 11.6161C3.87649 11.8505 3.74479 12.1685 3.74479 12.5C3.74479 12.8315 3.87649 13.1495 4.11091 13.3839C4.34533 13.6183 4.66327 13.75 4.99479 13.75C5.32631 13.75 5.64426 13.6183 5.87868 13.3839C6.1131 13.1495 6.24479 12.8315 6.24479 12.5C6.24479 12.1685 6.1131 11.8505 5.87868 11.6161C5.64426 11.3817 5.32631 11.25 4.99479 11.25ZM14.9948 11.25C14.6633 11.25 14.3453 11.3817 14.1109 11.6161C13.8765 11.8505 13.7448 12.1685 13.7448 12.5C13.7448 12.8315 13.8765 13.1495 14.1109 13.3839C14.3453 13.6183 14.6633 13.75 14.9948 13.75C15.3263 13.75 15.6443 13.6183 15.8787 13.3839C16.1131 13.1495 16.2448 12.8315 16.2448 12.5C16.2448 12.1685 16.1131 11.8505 15.8787 11.6161C15.6443 11.3817 15.3263 11.25 14.9948 11.25Z" fill="#800080"/>
</svg>
