<svg width="20" height="20" viewBox="0 0 20 20" fill="none" xmlns="http://www.w3.org/2000/svg">
<path d="M17.5052 5.0188C17.5077 4.89714 17.4994 3.79797 16.4219 2.73964C15.361 1.69797 14.291 1.66797 14.1719 1.66797H5.83521C5.63604 1.66797 4.59104 1.72047 3.57854 2.75297C2.53521 3.8163 2.50521 4.8838 2.50521 5.0013V7.5013H1.67188V10.0013H2.50521V15.0013C2.50521 15.613 2.84354 16.1455 3.33854 16.4355V17.5013C3.33854 17.7223 3.42634 17.9343 3.58262 18.0906C3.7389 18.2468 3.95086 18.3346 4.17188 18.3346H5.00521C5.22622 18.3346 5.43818 18.2468 5.59446 18.0906C5.75074 17.9343 5.83854 17.7223 5.83854 17.5013V16.668H14.1719V17.5013C14.1719 17.7223 14.2597 17.9343 14.416 18.0906C14.5722 18.2468 14.7842 18.3346 15.0052 18.3346H15.8385C16.0596 18.3346 16.2715 18.2468 16.4278 18.0906C16.5841 17.9343 16.6719 17.7223 16.6719 17.5013V16.4371C16.9247 16.2921 17.1348 16.0831 17.2811 15.831C17.4274 15.5789 17.5047 15.2928 17.5052 15.0013V10.0013H18.3385V7.5013H17.5052V5.0188ZM7.50521 3.33464H12.5052V5.0013H7.50521V3.33464ZM5.42188 15.0013C5.09024 15.0012 4.77224 14.8693 4.53782 14.6348C4.3034 14.4002 4.17176 14.0821 4.17188 13.7505C4.17199 13.4188 4.30383 13.1008 4.53841 12.8664C4.77298 12.632 5.09108 12.5004 5.42271 12.5005C5.75434 12.5006 6.07234 12.6324 6.30676 12.867C6.54118 13.1016 6.67282 13.4197 6.67271 13.7513C6.6726 14.0829 6.54075 14.4009 6.30617 14.6354C6.0716 14.8698 5.75351 15.0014 5.42188 15.0013ZM9.17188 10.8346H4.17188V6.66797H9.17188V10.8346ZM14.5885 15.0013C14.2569 15.0012 13.9389 14.8693 13.7045 14.6348C13.4701 14.4002 13.3384 14.0821 13.3385 13.7505C13.3387 13.4188 13.4705 13.1008 13.7051 12.8664C13.9397 12.632 14.2577 12.5004 14.5894 12.5005C14.921 12.5006 15.239 12.6324 15.4734 12.867C15.7079 13.1016 15.8395 13.4197 15.8394 13.7513C15.8393 14.0829 15.7074 14.4009 15.4728 14.6354C15.2383 14.8698 14.9202 15.0014 14.5885 15.0013ZM15.8385 10.8346H10.8385V6.66797H15.8385V10.8346Z" fill="#F0F0F0"/>
</svg>
