<svg width="20" height="16" viewBox="0 0 20 16" fill="none" xmlns="http://www.w3.org/2000/svg">
<g clip-path="url(#clip0_1499_10153)">
<path d="M11 0H19C19.5531 0 20 0.446875 20 1V15C20 15.5531 19.5531 16 19 16H11C10.4469 16 10 15.5531 10 15V1C10 0.446875 10.4469 0 11 0ZM15 6.25C14.5844 6.25 14.25 6.58437 14.25 7V9C14.25 9.41563 14.5844 9.75 15 9.75C15.4156 9.75 15.75 9.41563 15.75 9V7C15.75 6.58437 15.4156 6.25 15 6.25ZM15.75 12C15.75 11.5844 15.4156 11.25 15 11.25C14.5844 11.25 14.25 11.5844 14.25 12V14C14.25 14.4156 14.5844 14.75 15 14.75C15.4156 14.75 15.75 14.4156 15.75 14V12ZM15 1.25C14.5844 1.25 14.25 1.58437 14.25 2V4C14.25 4.41563 14.5844 4.75 15 4.75C15.4156 4.75 15.75 4.41563 15.75 4V2C15.75 1.58437 15.4156 1.25 15 1.25ZM1 3H9V5H7.75V7H9V10C7.34375 10 6 11.3438 6 13V15C6 15.5531 5.55313 16 5 16H4C3.44687 16 3 15.5531 3 15V13C3 11.3438 1.65625 10 0 10V7H2.25V5H1C0.446875 5 0 4.55313 0 4C0 3.44687 0.446875 3 1 3ZM6.25 5H3.75V7H6.25V5Z" fill="#CA6437"/>
</g>
<defs>
<clipPath id="clip0_1499_10153">
<rect width="20" height="16" fill="white"/>
</clipPath>
</defs>
</svg>
