<svg width="34" height="47" viewBox="0 0 34 47" fill="none" xmlns="http://www.w3.org/2000/svg">
<path d="M34 17.625C34 25.648 23.6406 39.9316 19.0984 45.825C18.0094 47.2295 15.9906 47.2295 14.9016 45.825C10.2797 39.9316 0 25.648 0 17.625C0 7.89086 7.61104 0 17 0C26.3854 0 34 7.89086 34 17.625Z" fill="#FC6605"/>
<path d="M18.25 12.3849C18.25 11.2715 16.9033 10.714 16.1167 11.5015L12.3667 15.2515H10.7567C9.80584 15.2515 8.825 15.8049 8.54 16.839C8.34705 17.5436 8.24951 18.271 8.25 19.0015C8.25 19.7499 8.35084 20.4749 8.54167 21.164C8.82584 22.1974 9.80667 22.7515 10.7575 22.7515H12.3658L16.1158 26.5015C16.9033 27.289 18.25 26.7315 18.25 25.6182V12.3849ZM22.4867 13.2565C22.6039 13.1395 22.7627 13.0737 22.9283 13.0737C23.094 13.0737 23.2528 13.1395 23.37 13.2565C26.5433 16.429 26.5433 21.5732 23.37 24.7465C23.2515 24.8569 23.0948 24.917 22.9329 24.9142C22.771 24.9113 22.6165 24.8457 22.502 24.7312C22.3875 24.6167 22.3219 24.4622 22.319 24.3003C22.3162 24.1384 22.3763 23.9817 22.4867 23.8632C23.1252 23.2248 23.6317 22.4668 23.9772 21.6327C24.3228 20.7985 24.5006 19.9044 24.5006 19.0015C24.5006 18.0986 24.3228 17.2045 23.9772 16.3704C23.6317 15.5362 23.1252 14.7783 22.4867 14.1399C22.3696 14.0227 22.3039 13.8638 22.3039 13.6982C22.3039 13.5326 22.3696 13.3737 22.4867 13.2565Z" fill="white"/>
<path d="M20.2757 15.4645C20.3337 15.4064 20.4027 15.3603 20.4785 15.3289C20.5544 15.2974 20.6357 15.2812 20.7178 15.2812C20.7999 15.2812 20.8812 15.2974 20.9571 15.3289C21.0329 15.3603 21.1018 15.4064 21.1599 15.4645C21.6242 15.9288 21.9926 16.48 22.2439 17.0867C22.4953 17.6934 22.6246 18.3436 22.6246 19.0003C22.6246 19.657 22.4953 20.3072 22.2439 20.9139C21.9926 21.5206 21.6242 22.0718 21.1599 22.5361C21.0419 22.6499 20.884 22.7128 20.7202 22.7113C20.5563 22.7098 20.3996 22.644 20.2837 22.5281C20.1679 22.4122 20.1022 22.2554 20.1009 22.0915C20.0996 21.9276 20.1626 21.7698 20.2765 21.652C20.6248 21.3037 20.901 20.8903 21.0894 20.4354C21.2779 19.9804 21.3749 19.4927 21.3749 19.0003C21.3749 18.5078 21.2779 18.0202 21.0894 17.5652C20.901 17.1102 20.6248 16.6968 20.2765 16.3486C20.1595 16.2314 20.0938 16.0726 20.0938 15.907C20.0938 15.7413 20.1595 15.5825 20.2765 15.4653" fill="white"/>
</svg>
