<svg width="22" height="22" viewBox="0 0 22 22" fill="none" xmlns="http://www.w3.org/2000/svg">
<path d="M3 10.9996C3 7.22857 3 5.34304 4.17152 4.17152C5.34304 3 7.22857 3 10.9996 3C14.7707 3 16.6562 3 17.8277 4.17152C18.9993 5.34304 18.9993 7.22857 18.9993 10.9996C18.9993 14.7707 18.9993 16.6562 17.8277 17.8277C16.6562 18.9993 14.7707 18.9993 10.9996 18.9993C7.22857 18.9993 5.34304 18.9993 4.17152 17.8277C3 16.6562 3 14.7707 3 10.9996Z" stroke="#8AC63F" stroke-width="2" stroke-linejoin="round"/>
<path d="M8.5 1V2.99991" stroke="#8AC63F" stroke-width="2" stroke-linecap="round" stroke-linejoin="round"/>
<path d="M13.5 1V2.99991" stroke="#8AC63F" stroke-width="2" stroke-linecap="round" stroke-linejoin="round"/>
<path d="M8.5 19V20.9999" stroke="#8AC63F" stroke-width="2" stroke-linecap="round" stroke-linejoin="round"/>
<path d="M13.5 19V20.9999" stroke="#8AC63F" stroke-width="2" stroke-linecap="round" stroke-linejoin="round"/>
<path d="M11.9998 8L8 11.9998" stroke="#8AC63F" stroke-width="2" stroke-linecap="round" stroke-linejoin="round"/>
<path d="M13.9999 12L12 13.9999" stroke="#8AC63F" stroke-width="2" stroke-linecap="round" stroke-linejoin="round"/>
<path d="M21 13.5L19.0001 13.5" stroke="#8AC63F" stroke-width="2" stroke-linecap="round" stroke-linejoin="round"/>
<path d="M3 8.5L1.00009 8.5" stroke="#8AC63F" stroke-width="2" stroke-linecap="round" stroke-linejoin="round"/>
<path d="M3 13.5L1.00009 13.5" stroke="#8AC63F" stroke-width="2" stroke-linecap="round" stroke-linejoin="round"/>
<path d="M21 8.5L19.0001 8.5" stroke="#8AC63F" stroke-width="2" stroke-linecap="round" stroke-linejoin="round"/>
</svg>
