<svg width="36" height="46" viewBox="0 0 36 46" fill="none" xmlns="http://www.w3.org/2000/svg">
<path fill-rule="evenodd" clip-rule="evenodd" d="M7 1C3.68629 1 1 3.68629 1 7V31C1 34.3137 3.68629 37 7 37H10.9015L18.3245 44.2275L25.5154 37H29C32.3137 37 35 34.3137 35 31V7C35 3.68629 32.3137 1 29 1H7Z" fill="white"/>
<path d="M10.9015 37L11.5991 36.2835L11.3079 36H10.9015V37ZM18.3245 44.2275L17.6269 44.944L18.3357 45.6341L19.0334 44.9328L18.3245 44.2275ZM25.5154 37V36H25.0997L24.8065 36.2947L25.5154 37ZM2 7C2 4.23858 4.23858 2 7 2V0C3.13401 0 0 3.13401 0 7H2ZM2 31V7H0V31H2ZM7 36C4.23858 36 2 33.7614 2 31H0C0 34.866 3.13401 38 7 38V36ZM10.9015 36H7V38H10.9015V36ZM19.0222 43.511L11.5991 36.2835L10.2039 37.7165L17.6269 44.944L19.0222 43.511ZM24.8065 36.2947L17.6156 43.5222L19.0334 44.9328L26.2243 37.7053L24.8065 36.2947ZM29 36H25.5154V38H29V36ZM34 31C34 33.7614 31.7614 36 29 36V38C32.866 38 36 34.866 36 31H34ZM34 7V31H36V7H34ZM29 2C31.7614 2 34 4.23858 34 7H36C36 3.13401 32.866 0 29 0V2ZM7 2H29V0H7V2Z" fill="#E7D46F"/>
<g clip-path="url(#clip0_1386_11590)">
<path d="M19.3112 10.5437C18.5862 9.81875 17.4113 9.81875 16.6862 10.5437L8.54375 18.6875C7.81875 19.4125 7.81875 20.5863 8.54375 21.31L16.6888 29.455C17.4138 30.18 18.5875 30.18 19.3112 29.455L27.4562 21.31C28.1812 20.585 28.1812 19.4113 27.4562 18.6875L19.3112 10.5437ZM17.0612 15H18.9362V19.0625H22.9987V20.9375H18.9362V25H17.0612V20.9375H12.9988V19.0625H17.0612V15Z" fill="#388A3F"/>
</g>
<defs>
<clipPath id="clip0_1386_11590">
<rect width="20" height="20" fill="white" transform="translate(8 10)"/>
</clipPath>
</defs>
</svg>
