<svg width="20" height="20" viewBox="0 0 20 20" fill="none" xmlns="http://www.w3.org/2000/svg">
<path d="M13.5093 13.3334H6.49264C6.21563 13.3338 5.94417 13.2558 5.70968 13.1083C5.47519 12.9608 5.28726 12.75 5.16764 12.5001C5.02761 12.2036 4.97368 11.8738 5.01199 11.5482C5.05029 11.2226 5.1793 10.9143 5.38431 10.6584L8.89264 6.40843C9.03032 6.24958 9.20054 6.12217 9.39177 6.03485C9.58299 5.94753 9.79075 5.90234 10.001 5.90234C10.2112 5.90234 10.419 5.94753 10.6102 6.03485C10.8014 6.12217 10.9716 6.24958 11.1093 6.40843L14.6176 10.6584C14.8226 10.9143 14.9517 11.2226 14.99 11.5482C15.0283 11.8738 14.9743 12.2036 14.8343 12.5001C14.7147 12.75 14.5268 12.9608 14.2923 13.1083C14.0578 13.2558 13.7863 13.3338 13.5093 13.3334Z" fill="#F0F0F0"/>
</svg>
