<svg width="20" height="20" viewBox="0 0 20 20" fill="none" xmlns="http://www.w3.org/2000/svg">
<g clip-path="url(#clip0_1087_19277)">
<g filter="url(#filter0_d_1087_19277)">
<path d="M10.4531 18.4476C9.48967 18.448 8.55302 18.1413 7.78854 17.5752C7.02406 17.0091 6.47451 16.2151 6.22519 15.3165C5.97586 14.418 6.0407 13.4651 6.40964 12.6057C6.77859 11.7464 7.431 11.0287 8.26562 10.564L8.57812 10.3902V3.36106C8.57641 2.93405 8.7315 2.52027 9.01584 2.19321C9.30018 1.86615 9.69537 1.64698 10.1312 1.57462C10.5671 1.50226 11.0154 1.5814 11.3966 1.79798C11.7777 2.01455 12.067 2.35455 12.2131 2.75759H10.4531V3.96452H12.3281V5.17144H10.4531V6.37836H12.3281V7.58528H10.4531V8.79221H12.3281V10.3902L12.6406 10.564C13.4752 11.0287 14.1277 11.7464 14.4966 12.6057C14.8656 13.4651 14.9304 14.418 14.6811 15.3165C14.4317 16.2151 13.8822 17.0091 13.1177 17.5752C12.3532 18.1413 11.4166 18.448 10.4531 18.4476ZM13.5781 9.70705V3.36106C13.5781 2.56082 13.2489 1.79335 12.6628 1.2275C12.0768 0.661644 11.2819 0.34375 10.4531 0.34375C9.62432 0.34375 8.82947 0.661644 8.24342 1.2275C7.65737 1.79335 7.32812 2.56082 7.32812 3.36106V9.70705C6.32472 10.3544 5.56353 11.2961 5.15697 12.3932C4.7504 13.4902 4.72003 14.6845 5.07032 15.7995C5.42062 16.9145 6.13301 17.8912 7.1023 18.5853C8.07158 19.2794 9.24636 19.6541 10.4531 19.6541C11.6599 19.6541 12.8347 19.2794 13.804 18.5853C14.7732 17.8912 15.4856 16.9145 15.8359 15.7995C16.1862 14.6845 16.1558 13.4902 15.7493 12.3932C15.3427 11.2961 14.5815 10.3544 13.5781 9.70705Z" fill="#8AC63F"/>
</g>
<path d="M10.4531 10.9062C11.2819 10.9063 12.0768 11.2355 12.6628 11.8215C13.2489 12.4076 13.5781 13.2024 13.5781 14.0312C13.5781 14.8601 13.2489 15.6549 12.6628 16.241C12.0768 16.827 11.2819 17.1562 10.4531 17.1562C9.62432 17.1562 8.82947 16.827 8.24342 16.241C7.65737 15.6549 7.32813 14.8601 7.32812 14.0312C7.32813 13.2024 7.65737 12.4076 8.24342 11.8215C8.82947 11.2355 9.62432 10.9062 10.4531 10.9062Z" fill="#8AC63F"/>
<g filter="url(#filter1_d_1087_19277)">
<path d="M18.9032 3.03248L17.1253 0.120421C17.0995 0.0831815 17.0655 0.0528231 17.0259 0.031876C16.9864 0.010929 16.9426 0 16.8982 0C16.8537 0 16.8099 0.010929 16.7704 0.031876C16.7309 0.0528231 16.6968 0.0831815 16.671 0.120421L14.8851 3.04655C14.637 3.45813 14.4988 3.92971 14.4844 4.41374C14.4844 5.07223 14.7387 5.70374 15.1914 6.16935C15.644 6.63497 16.258 6.89655 16.8982 6.89655C17.5383 6.89655 18.1523 6.63497 18.605 6.16935C19.0577 5.70374 19.312 5.07223 19.312 4.41374C19.2965 3.9243 19.1555 3.44776 18.9032 3.03248ZM16.8982 6.34482C16.4004 6.34416 15.9233 6.1405 15.5714 5.77849C15.2194 5.41649 15.0214 4.9257 15.0208 4.41374C15.035 4.02797 15.1477 3.65284 15.3474 3.326L15.5982 2.91496L18.3 5.69405C18.1246 5.89854 17.9088 6.06234 17.6671 6.17458C17.4255 6.28682 17.1633 6.34467 16.8982 6.34482Z" fill="#8AC63F"/>
</g>
</g>
<defs>
<filter id="filter0_d_1087_19277" x="0.828125" y="0.34375" width="19.25" height="27.3086" filterUnits="userSpaceOnUse" color-interpolation-filters="sRGB">
<feFlood flood-opacity="0" result="BackgroundImageFix"/>
<feColorMatrix in="SourceAlpha" type="matrix" values="0 0 0 0 0 0 0 0 0 0 0 0 0 0 0 0 0 0 127 0" result="hardAlpha"/>
<feOffset dy="4"/>
<feGaussianBlur stdDeviation="2"/>
<feComposite in2="hardAlpha" operator="out"/>
<feColorMatrix type="matrix" values="0 0 0 0 0 0 0 0 0 0 0 0 0 0 0 0 0 0 0.25 0"/>
<feBlend mode="normal" in2="BackgroundImageFix" result="effect1_dropShadow_1087_19277"/>
<feBlend mode="normal" in="SourceGraphic" in2="effect1_dropShadow_1087_19277" result="shape"/>
</filter>
<filter id="filter1_d_1087_19277" x="10.4844" y="0" width="12.8281" height="14.8984" filterUnits="userSpaceOnUse" color-interpolation-filters="sRGB">
<feFlood flood-opacity="0" result="BackgroundImageFix"/>
<feColorMatrix in="SourceAlpha" type="matrix" values="0 0 0 0 0 0 0 0 0 0 0 0 0 0 0 0 0 0 127 0" result="hardAlpha"/>
<feOffset dy="4"/>
<feGaussianBlur stdDeviation="2"/>
<feComposite in2="hardAlpha" operator="out"/>
<feColorMatrix type="matrix" values="0 0 0 0 0 0 0 0 0 0 0 0 0 0 0 0 0 0 0.25 0"/>
<feBlend mode="normal" in2="BackgroundImageFix" result="effect1_dropShadow_1087_19277"/>
<feBlend mode="normal" in="SourceGraphic" in2="effect1_dropShadow_1087_19277" result="shape"/>
</filter>
<clipPath id="clip0_1087_19277">
<rect width="20" height="20" fill="white"/>
</clipPath>
</defs>
</svg>
