<svg width="21" height="21" viewBox="0 0 21 21" fill="none" xmlns="http://www.w3.org/2000/svg">
<path d="M15.4061 9.18259L11.0558 2.25521C10.9927 2.16663 10.9093 2.09441 10.8127 2.04458C10.716 1.99475 10.6088 1.96875 10.5 1.96875C10.3912 1.96875 10.284 1.99475 10.1873 2.04458C10.0907 2.09441 10.0073 2.16663 9.94416 2.25521L5.57419 9.21606C4.96719 10.1952 4.62902 11.317 4.59375 12.4684C4.59375 14.0349 5.21601 15.5371 6.32365 16.6448C7.43129 17.7524 8.93357 18.3747 10.5 18.3747C12.0664 18.3747 13.5687 17.7524 14.6763 16.6448C15.784 15.5371 16.4062 14.0349 16.4062 12.4684C16.3685 11.3041 16.0235 10.1705 15.4061 9.18259ZM10.5 17.0622C9.28214 17.0606 8.11461 16.5761 7.25345 15.715C6.3923 14.8538 5.90781 13.6863 5.90625 12.4684C5.94113 11.5507 6.21679 10.6583 6.70556 9.88084L7.31916 8.90303L13.9302 15.5141C13.5008 16.0006 12.973 16.3902 12.3816 16.6572C11.7902 16.9242 11.1489 17.0618 10.5 17.0622Z" fill="#8AC63F"/>
</svg>
