<svg width="15" height="15" viewBox="0 0 15 15" fill="none" xmlns="http://www.w3.org/2000/svg">
<path d="M0.3125 2.24475C0.3125 1.28137 1.09562 0.5 2.05725 0.5H12.5677C13.5311 0.5 14.3125 1.28312 14.3125 2.24475V12.7552C14.3123 13.2179 14.1284 13.6616 13.8012 13.9887C13.4741 14.3159 13.0304 14.4998 12.5677 14.5H2.05725C1.59458 14.4998 1.15094 14.3159 0.823781 13.9887C0.496628 13.6616 0.312732 13.2179 0.3125 12.7552L0.3125 2.24475ZM1.1875 2.24475V12.7552C1.1875 13.2347 1.57775 13.625 2.05725 13.625H12.5677C12.7984 13.6248 13.0194 13.5331 13.1825 13.37C13.3456 13.2069 13.4373 12.9859 13.4375 12.7552V2.24475C13.4373 2.01415 13.3456 1.79306 13.1825 1.63C13.0194 1.46694 12.7984 1.37523 12.5677 1.375H2.05725C1.82665 1.37523 1.60556 1.46694 1.4425 1.63C1.27944 1.79306 1.18773 2.01415 1.1875 2.24475ZM1.1875 4H13.4375V4.875H1.1875V4ZM2.5 3.125C2.38397 3.125 2.27269 3.07891 2.19064 2.99686C2.10859 2.91481 2.0625 2.80353 2.0625 2.6875C2.0625 2.57147 2.10859 2.46019 2.19064 2.37814C2.27269 2.29609 2.38397 2.25 2.5 2.25H3.375C3.49103 2.25 3.60231 2.29609 3.68436 2.37814C3.76641 2.46019 3.8125 2.57147 3.8125 2.6875C3.8125 2.80353 3.76641 2.91481 3.68436 2.99686C3.60231 3.07891 3.49103 3.125 3.375 3.125H2.5ZM5.125 3.125C5.00897 3.125 4.89769 3.07891 4.81564 2.99686C4.73359 2.91481 4.6875 2.80353 4.6875 2.6875C4.6875 2.57147 4.73359 2.46019 4.81564 2.37814C4.89769 2.29609 5.00897 2.25 5.125 2.25H6C6.11603 2.25 6.22731 2.29609 6.30936 2.37814C6.39141 2.46019 6.4375 2.57147 6.4375 2.6875C6.4375 2.80353 6.39141 2.91481 6.30936 2.99686C6.22731 3.07891 6.11603 3.125 6 3.125H5.125ZM9.45362 8.46775C9.59877 8.5405 9.72082 8.65219 9.8061 8.79034C9.89139 8.92849 9.93657 9.08764 9.93657 9.25C9.93657 9.41236 9.89139 9.57151 9.8061 9.70966C9.72082 9.84781 9.59877 9.9595 9.45362 10.0323L6.82863 11.7823C6.69526 11.8489 6.54707 11.8804 6.39813 11.8736C6.24919 11.8669 6.10443 11.8223 5.97759 11.7439C5.85076 11.6656 5.74605 11.5561 5.6734 11.4259C5.60075 11.2957 5.56258 11.1491 5.5625 11V7.5C5.56258 7.35091 5.60075 7.20431 5.6734 7.07411C5.74605 6.94392 5.85076 6.83444 5.97759 6.75608C6.10443 6.67772 6.24919 6.63306 6.39813 6.62635C6.54707 6.61964 6.69526 6.65111 6.82863 6.71775L9.45362 8.46775ZM9.0625 9.25L6.4375 7.5V11L9.0625 9.25Z" fill="#F0F0F0"/>
</svg>
