<svg width="34" height="47" viewBox="0 0 34 47" fill="none" xmlns="http://www.w3.org/2000/svg">
<path d="M34 17.625C34 25.6481 23.6406 39.9316 19.0984 45.825C18.0094 47.2295 15.9906 47.2295 14.9016 45.825C10.2797 39.9316 0 25.6481 0 17.625C0 7.89086 7.61104 0 17 0C26.3854 0 34 7.89086 34 17.625Z" fill="#8D66FD"/>
<path d="M17 11.8633L9.91406 15.0578L13.1289 16.507L19.8945 13.1672L17 11.8633ZM20.7266 13.5422L13.9609 16.882L17 18.2531L24.0859 15.0578L20.7266 13.5422ZM9.41016 15.6008V22.7102L16.6484 25.9758V18.8664L9.41016 15.6008ZM24.5898 15.6008L17.3516 18.8664V25.9758L24.5898 22.7102V15.6008Z" fill="white"/>
</svg>
