<svg width="20" height="20" viewBox="0 0 20 20" fill="none" xmlns="http://www.w3.org/2000/svg">
<path d="M11.6615 10.4167C11.6615 11.3371 10.9153 12.0833 9.99479 12.0833C9.07432 12.0833 8.32812 11.3371 8.32812 10.4167C8.32812 9.49619 9.07432 8.75 9.99479 8.75C10.9153 8.75 11.6615 9.49619 11.6615 10.4167Z" stroke="#8AC63F" stroke-width="2"/>
<path d="M12.4233 7.02736L13.21 5.54202C13.7773 4.47105 14.0609 3.93556 13.8193 3.35015C13.5777 2.76474 13.106 2.63459 12.1627 2.37428C11.4718 2.18363 10.746 2.08203 9.9974 2.08203C9.24875 2.08203 8.52295 2.18363 7.83209 2.37428C6.88878 2.63459 6.41713 2.76474 6.17553 3.35015C5.93393 3.93556 6.21754 4.47105 6.78477 5.54202L7.57146 7.02736M14.1618 10.5528H15.8834C17.1129 10.5528 17.7277 10.5528 18.1058 11.0836C18.4839 11.6144 18.3339 12.1195 18.0339 13.1296C17.5926 14.6153 16.7799 15.9318 15.7082 16.962C14.9885 17.6538 14.6287 17.9998 14.0209 17.8978C13.4131 17.7958 13.1285 17.2585 12.5593 16.1838L11.5522 14.2823M8.44257 14.2823L7.43545 16.1838C6.86626 17.2585 6.58166 17.7958 5.9739 17.8978C5.36614 17.9998 5.00629 17.6538 4.28658 16.962C3.21494 15.9318 2.40217 14.6153 1.96092 13.1296C1.66091 12.1195 1.51091 11.6144 1.88902 11.0836C2.26714 10.5528 2.88188 10.5528 4.11137 10.5528H5.83295" stroke="#8AC63F" stroke-width="2" stroke-linecap="round" stroke-linejoin="round"/>
</svg>
