<svg width="32" height="33" viewBox="0 0 32 33" fill="none" xmlns="http://www.w3.org/2000/svg">
<circle cx="16" cy="16.5" r="16" fill="#C5C6C9"/>
<path d="M25.5836 22.9271C25.0618 21.7146 24.3046 20.6133 23.3542 19.6844C22.4067 18.7529 21.2843 18.0102 20.0489 17.4973C20.0379 17.4919 20.0268 17.4892 20.0158 17.4837C21.7389 16.2626 22.8591 14.2736 22.8591 12.0295C22.8591 8.31186 19.7889 5.2998 15.9996 5.2998C12.2103 5.2998 9.14008 8.31186 9.14008 12.0295C9.14008 14.2736 10.2603 16.2626 11.9835 17.4864C11.9724 17.4919 11.9613 17.4946 11.9503 17.5C10.7111 18.0129 9.59923 18.7482 8.64498 19.6871C7.69546 20.6167 6.93841 21.7179 6.41563 22.9299C5.90206 24.1164 5.62508 25.3885 5.59968 26.6773C5.59894 26.7063 5.60412 26.7351 5.61491 26.762C5.6257 26.789 5.64188 26.8136 5.6625 26.8343C5.68312 26.8551 5.70776 26.8715 5.73498 26.8828C5.76219 26.894 5.79142 26.8998 5.82095 26.8998H7.48052C7.60222 26.8998 7.69903 26.8048 7.70179 26.6881C7.75711 24.5933 8.61455 22.6314 10.1303 21.1443C11.6986 19.6057 13.7813 18.7591 15.9996 18.7591C18.2179 18.7591 20.3006 19.6057 21.8689 21.1443C23.3847 22.6314 24.2421 24.5933 24.2974 26.6881C24.3002 26.8075 24.397 26.8998 24.5187 26.8998H26.1783C26.2078 26.8998 26.237 26.894 26.2642 26.8828C26.2915 26.8715 26.3161 26.8551 26.3367 26.8343C26.3573 26.8136 26.3735 26.789 26.3843 26.762C26.3951 26.7351 26.4003 26.7063 26.3995 26.6773C26.3719 25.3802 26.0981 24.1184 25.5836 22.9271ZM15.9996 16.6968C14.73 16.6968 13.5352 16.2111 12.6362 15.3292C11.7373 14.4472 11.2422 13.275 11.2422 12.0295C11.2422 10.7839 11.7373 9.61166 12.6362 8.72975C13.5352 7.84784 14.73 7.36212 15.9996 7.36212C17.2692 7.36212 18.4641 7.84784 19.363 8.72975C20.2619 9.61166 20.757 10.7839 20.757 12.0295C20.757 13.275 20.2619 14.4472 19.363 15.3292C18.4641 16.2111 17.2692 16.6968 15.9996 16.6968Z" fill="#F7F7F7"/>
</svg>
