<svg width="790" height="589" viewBox="0 0 790 589" fill="none" xmlns="http://www.w3.org/2000/svg">
<g clip-path="url(#clip0_1553_10315)">
<path d="M267.998 337L-4.34375 562.543L-4.99837 337.544L267.998 337Z" stroke="#8B8888"/>
<path d="M454.999 401.697L680.594 673.996L455.595 674.693L454.999 401.697Z" stroke="#8B8888"/>
<path d="M341.997 401.001L117.594 674.695L342.593 673.998L341.997 401.001Z" stroke="#8B8888"/>
<path d="M523.528 224.999L796.844 0.636719L796.524 225.637L523.528 224.999Z" stroke="#8B8888"/>
<path d="M522.323 337.995L795 563.633L795.32 338.633L522.323 337.995Z" stroke="#8B8888"/>
<path d="M266.654 225.998L-7 1.54297L-6.34538 226.542L266.654 225.998Z" stroke="#8B8888"/>
<path d="M345.002 155.111L120.391 -118L345.391 -117.886L345.002 155.111Z" stroke="#8B8888"/>
<path d="M458.002 156.211L683.391 -116.672L458.391 -116.786L458.002 156.211Z" stroke="#8B8888"/>
<rect x="193.992" y="282" width="2" height="32" transform="rotate(89.5104 193.992 282)" fill="#8B8888"/>
<rect x="155.992" y="282.324" width="2" height="32" transform="rotate(89.5104 155.992 282.324)" fill="#8B8888"/>
<rect x="117.996" y="282.648" width="2" height="32" transform="rotate(89.5104 117.996 282.648)" fill="#8B8888"/>
<rect x="79.9961" y="282.973" width="2" height="32" transform="rotate(89.5104 79.9961 282.973)" fill="#8B8888"/>
<rect x="41.9961" y="283.301" width="2" height="32" transform="rotate(89.5104 41.9961 283.301)" fill="#8B8888"/>
<rect x="772.992" y="282" width="2" height="32" transform="rotate(89.5104 772.992 282)" fill="#8B8888"/>
<rect x="734.992" y="282.324" width="2" height="32" transform="rotate(89.5104 734.992 282.324)" fill="#8B8888"/>
<rect x="696.996" y="282.648" width="2" height="32" transform="rotate(89.5104 696.996 282.648)" fill="#8B8888"/>
<rect x="658.996" y="282.973" width="2" height="32" transform="rotate(89.5104 658.996 282.973)" fill="#8B8888"/>
<rect x="620.996" y="283.301" width="2" height="32" transform="rotate(89.5104 620.996 283.301)" fill="#8B8888"/>
<rect x="669.84" y="20" width="2" height="32" transform="rotate(45.7673 669.84 20)" fill="#8B8888"/>
<rect x="642.613" y="46.5078" width="2" height="32" transform="rotate(45.7673 642.613 46.5078)" fill="#8B8888"/>
<rect x="615.387" y="73.0156" width="2" height="32" transform="rotate(45.7673 615.387 73.0156)" fill="#8B8888"/>
<rect x="588.156" y="99.5234" width="2" height="32" transform="rotate(45.7673 588.156 99.5234)" fill="#8B8888"/>
<rect x="560.93" y="126.031" width="2" height="32" transform="rotate(45.7673 560.93 126.031)" fill="#8B8888"/>
<rect x="267.883" y="149.887" width="2" height="32" transform="rotate(130.66 267.883 149.887)" fill="#8B8888"/>
<rect x="239.055" y="125.129" width="2" height="32" transform="rotate(130.66 239.055 125.129)" fill="#8B8888"/>
<rect x="210.23" y="100.367" width="2" height="32" transform="rotate(130.66 210.23 100.367)" fill="#8B8888"/>
<rect x="181.402" y="75.6094" width="2" height="32" transform="rotate(130.66 181.402 75.6094)" fill="#8B8888"/>
<rect x="152.578" y="50.8477" width="2" height="32" transform="rotate(130.66 152.578 50.8477)" fill="#8B8888"/>
<rect x="261.207" y="411" width="2" height="32" transform="rotate(44.6039 261.207 411)" fill="#8B8888"/>
<rect x="234.523" y="438.055" width="2" height="32" transform="rotate(44.6039 234.523 438.055)" fill="#8B8888"/>
<rect x="207.84" y="465.109" width="2" height="32" transform="rotate(44.6039 207.84 465.109)" fill="#8B8888"/>
<rect x="181.156" y="492.164" width="2" height="32" transform="rotate(44.6039 181.156 492.164)" fill="#8B8888"/>
<rect x="154.473" y="519.219" width="2" height="32" transform="rotate(44.6039 154.473 519.219)" fill="#8B8888"/>
<rect x="398.641" y="101.992" width="2" height="32" transform="rotate(179.489 398.641 101.992)" fill="#8B8888"/>
<rect x="398.301" y="63.9922" width="2" height="32" transform="rotate(179.489 398.301 63.9922)" fill="#8B8888"/>
<rect x="397.965" y="25.9961" width="2" height="32" transform="rotate(179.489 397.965 25.9961)" fill="#8B8888"/>
<rect x="398.301" y="587" width="2" height="32" transform="rotate(179.489 398.301 587)" fill="#8B8888"/>
<rect x="397.965" y="549.004" width="2" height="32" transform="rotate(179.489 397.965 549.004)" fill="#8B8888"/>
<rect x="397.625" y="511.004" width="2" height="32" transform="rotate(179.489 397.625 511.004)" fill="#8B8888"/>
<rect x="397.285" y="473.008" width="2" height="32" transform="rotate(179.489 397.285 473.008)" fill="#8B8888"/>
<rect x="663.367" y="542.262" width="2" height="32" transform="rotate(135.51 663.367 542.262)" fill="#8B8888"/>
<rect x="636.738" y="515.152" width="2" height="32" transform="rotate(135.51 636.738 515.152)" fill="#8B8888"/>
<rect x="610.109" y="488.047" width="2" height="32" transform="rotate(135.51 610.109 488.047)" fill="#8B8888"/>
<rect x="583.477" y="460.938" width="2" height="32" transform="rotate(135.51 583.477 460.938)" fill="#8B8888"/>
<rect x="556.848" y="433.828" width="2" height="32" transform="rotate(135.51 556.848 433.828)" fill="#8B8888"/>
</g>
<defs>
<clipPath id="clip0_1553_10315">
<rect width="790" height="589" fill="white"/>
</clipPath>
</defs>
</svg>
