<svg width="785" height="589" viewBox="0 0 785 589" fill="none" xmlns="http://www.w3.org/2000/svg">
<g clip-path="url(#clip0_2015_11627)">
<path d="M262.998 337L-9.34375 562.543L-9.99837 337.544L262.998 337Z" stroke="#8B8888"/>
<path d="M449.999 401.697L675.594 673.996L450.595 674.693L449.999 401.697Z" stroke="#8B8888"/>
<path d="M336.997 401.001L112.594 674.695L337.593 673.998L336.997 401.001Z" stroke="#8B8888"/>
<path d="M518.528 224.999L791.844 0.636719L791.524 225.637L518.528 224.999Z" stroke="#8B8888"/>
<path d="M517.323 337.995L790 563.633L790.32 338.633L517.323 337.995Z" stroke="#8B8888"/>
<path d="M261.654 225.998L-12 1.54297L-11.3454 226.542L261.654 225.998Z" stroke="#8B8888"/>
<path d="M340.002 155.111L115.391 -118L340.391 -117.886L340.002 155.111Z" stroke="#8B8888"/>
<path d="M453.002 156.211L678.391 -116.672L453.391 -116.786L453.002 156.211Z" stroke="#8B8888"/>
<rect x="302.984" y="282" width="2" height="32" transform="rotate(89.5104 302.984 282)" fill="#8B8888"/>
<rect x="264.984" y="282.324" width="2" height="32" transform="rotate(89.5104 264.984 282.324)" fill="#8B8888"/>
<rect x="226.984" y="282.648" width="2" height="32" transform="rotate(89.5104 226.984 282.648)" fill="#8B8888"/>
<rect x="188.992" y="282.973" width="2" height="32" transform="rotate(89.5104 188.992 282.973)" fill="#8B8888"/>
<rect x="150.992" y="283.301" width="2" height="32" transform="rotate(89.5104 150.992 283.301)" fill="#8B8888"/>
<rect x="112.992" y="283.625" width="2" height="32" transform="rotate(89.5104 112.992 283.625)" fill="#8B8888"/>
<rect x="74.9922" y="283.949" width="2" height="32" transform="rotate(89.5104 74.9922 283.949)" fill="#8B8888"/>
<rect x="36.9922" y="284.273" width="2" height="32" transform="rotate(89.5104 36.9922 284.273)" fill="#8B8888"/>
<rect x="785.984" y="282" width="2" height="32" transform="rotate(89.5104 785.984 282)" fill="#8B8888"/>
<rect x="747.984" y="282.324" width="2" height="32" transform="rotate(89.5104 747.984 282.324)" fill="#8B8888"/>
<rect x="709.984" y="282.648" width="2" height="32" transform="rotate(89.5104 709.984 282.648)" fill="#8B8888"/>
<rect x="671.992" y="282.973" width="2" height="32" transform="rotate(89.5104 671.992 282.973)" fill="#8B8888"/>
<rect x="633.992" y="283.301" width="2" height="32" transform="rotate(89.5104 633.992 283.301)" fill="#8B8888"/>
<rect x="595.992" y="283.625" width="2" height="32" transform="rotate(89.5104 595.992 283.625)" fill="#8B8888"/>
<rect x="557.992" y="283.949" width="2" height="32" transform="rotate(89.5104 557.992 283.949)" fill="#8B8888"/>
<rect x="519.992" y="284.273" width="2" height="32" transform="rotate(89.5104 519.992 284.273)" fill="#8B8888"/>
<rect x="666.523" y="9" width="2" height="32" transform="rotate(45.7673 666.523 9)" fill="#8B8888"/>
<rect x="639.297" y="35.5078" width="2" height="32" transform="rotate(45.7673 639.297 35.5078)" fill="#8B8888"/>
<rect x="612.07" y="62.0156" width="2" height="32" transform="rotate(45.7673 612.07 62.0156)" fill="#8B8888"/>
<rect x="584.844" y="88.5234" width="2" height="32" transform="rotate(45.7673 584.844 88.5234)" fill="#8B8888"/>
<rect x="557.617" y="115.031" width="2" height="32" transform="rotate(45.7673 557.617 115.031)" fill="#8B8888"/>
<rect x="530.383" y="141.539" width="2" height="32" transform="rotate(45.7673 530.383 141.539)" fill="#8B8888"/>
<rect x="503.156" y="168.047" width="2" height="32" transform="rotate(45.7673 503.156 168.047)" fill="#8B8888"/>
<rect x="475.93" y="194.555" width="2" height="32" transform="rotate(45.7673 475.93 194.555)" fill="#8B8888"/>
<rect x="328.367" y="212.168" width="2" height="32" transform="rotate(130.66 328.367 212.168)" fill="#8B8888"/>
<rect x="299.539" y="187.41" width="2" height="32" transform="rotate(130.66 299.539 187.41)" fill="#8B8888"/>
<rect x="270.711" y="162.648" width="2" height="32" transform="rotate(130.66 270.711 162.648)" fill="#8B8888"/>
<rect x="241.891" y="137.891" width="2" height="32" transform="rotate(130.66 241.891 137.891)" fill="#8B8888"/>
<rect x="213.062" y="113.129" width="2" height="32" transform="rotate(130.66 213.062 113.129)" fill="#8B8888"/>
<rect x="184.234" y="88.3711" width="2" height="32" transform="rotate(130.66 184.234 88.3711)" fill="#8B8888"/>
<rect x="155.406" y="63.6094" width="2" height="32" transform="rotate(130.66 155.406 63.6094)" fill="#8B8888"/>
<rect x="126.578" y="38.8516" width="2" height="32" transform="rotate(130.66 126.578 38.8516)" fill="#8B8888"/>
<rect x="326.258" y="344" width="2" height="32" transform="rotate(44.6039 326.258 344)" fill="#8B8888"/>
<rect x="299.57" y="371.055" width="2" height="32" transform="rotate(44.6039 299.57 371.055)" fill="#8B8888"/>
<rect x="272.891" y="398.109" width="2" height="32" transform="rotate(44.6039 272.891 398.109)" fill="#8B8888"/>
<rect x="246.203" y="425.164" width="2" height="32" transform="rotate(44.6039 246.203 425.164)" fill="#8B8888"/>
<rect x="219.523" y="452.219" width="2" height="32" transform="rotate(44.6039 219.523 452.219)" fill="#8B8888"/>
<rect x="192.836" y="479.277" width="2" height="32" transform="rotate(44.6039 192.836 479.277)" fill="#8B8888"/>
<rect x="166.156" y="506.332" width="2" height="32" transform="rotate(44.6039 166.156 506.332)" fill="#8B8888"/>
<rect x="139.469" y="533.387" width="2" height="32" transform="rotate(44.6039 139.469 533.387)" fill="#8B8888"/>
<rect x="454" y="344.469" width="2" height="32" transform="rotate(-47.2753 454 344.469)" fill="#8B8888"/>
<rect x="481.914" y="370.25" width="2" height="32" transform="rotate(-47.2753 481.914 370.25)" fill="#8B8888"/>
<rect x="509.828" y="396.031" width="2" height="32" transform="rotate(-47.2753 509.828 396.031)" fill="#8B8888"/>
<rect x="537.75" y="421.816" width="2" height="32" transform="rotate(-47.2753 537.75 421.816)" fill="#8B8888"/>
<rect x="565.664" y="447.598" width="2" height="32" transform="rotate(-47.2753 565.664 447.598)" fill="#8B8888"/>
<rect x="593.578" y="473.379" width="2" height="32" transform="rotate(-47.2753 593.578 473.379)" fill="#8B8888"/>
<rect x="621.492" y="499.16" width="2" height="32" transform="rotate(-47.2753 621.492 499.16)" fill="#8B8888"/>
<rect x="649.406" y="524.945" width="2" height="32" transform="rotate(-47.2753 649.406 524.945)" fill="#8B8888"/>
<rect x="394.32" y="603.988" width="2" height="32" transform="rotate(179.489 394.32 603.988)" fill="#8B8888"/>
<rect x="393.984" y="565.988" width="2" height="32" transform="rotate(179.489 393.984 565.988)" fill="#8B8888"/>
<rect x="393.641" y="527.992" width="2" height="32" transform="rotate(179.489 393.641 527.992)" fill="#8B8888"/>
<rect x="393.305" y="489.992" width="2" height="32" transform="rotate(179.489 393.305 489.992)" fill="#8B8888"/>
<rect x="392.969" y="451.996" width="2" height="32" transform="rotate(179.489 392.969 451.996)" fill="#8B8888"/>
<rect x="392.625" y="413.996" width="2" height="32" transform="rotate(179.489 392.625 413.996)" fill="#8B8888"/>
<rect x="392.289" y="375.996" width="2" height="32" transform="rotate(179.489 392.289 375.996)" fill="#8B8888"/>
<rect x="393.32" y="213.988" width="2" height="32" transform="rotate(179.489 393.32 213.988)" fill="#8B8888"/>
<rect x="392.984" y="175.988" width="2" height="32" transform="rotate(179.489 392.984 175.988)" fill="#8B8888"/>
<rect x="392.641" y="137.992" width="2" height="32" transform="rotate(179.489 392.641 137.992)" fill="#8B8888"/>
<rect x="392.305" y="99.9922" width="2" height="32" transform="rotate(179.489 392.305 99.9922)" fill="#8B8888"/>
<rect x="391.969" y="61.9961" width="2" height="32" transform="rotate(179.489 391.969 61.9961)" fill="#8B8888"/>
<rect x="391.625" y="23.9961" width="2" height="32" transform="rotate(179.489 391.625 23.9961)" fill="#8B8888"/>
</g>
<defs>
<clipPath id="clip0_2015_11627">
<rect width="785" height="589" fill="white"/>
</clipPath>
</defs>
</svg>
