<svg width="20" height="15" viewBox="0 0 20 15" fill="none" xmlns="http://www.w3.org/2000/svg">
<path d="M16.2499 7C16.1949 7 16.1418 7.00625 16.0874 7.00813L15.148 2.625H17.4999V1.375H14.3749C14.2817 1.37497 14.1896 1.3958 14.1055 1.43597C14.0213 1.47613 13.9472 1.53461 13.8886 1.60712C13.83 1.67963 13.7884 1.76433 13.7668 1.85502C13.7451 1.94572 13.7441 2.0401 13.7636 2.13125L14.1374 3.875H7.74177L7.11677 2H8.74989V0.75H4.37489V2H5.79989L6.45052 3.95188L4.84427 7.16438C4.11528 6.94111 3.33555 6.94534 2.60904 7.17652C1.88252 7.40769 1.24372 7.85482 0.777803 8.45831C0.311885 9.06179 0.0409801 9.79295 0.0012026 10.5543C-0.0385749 11.3157 0.154664 12.0711 0.555161 12.7199C0.955657 13.3686 1.54438 13.8799 2.24286 14.1855C2.94133 14.4911 3.71637 14.5766 4.46465 14.4305C5.21294 14.2844 5.89891 13.9137 6.43114 13.3678C6.96337 12.8219 7.31657 12.1267 7.44364 11.375H9.07489C9.26235 11.3751 9.44742 11.333 9.61641 11.2518C9.7854 11.1707 9.93398 11.0526 10.0511 10.9062L14.4624 5.39125L14.8649 7.26875C14.0002 7.61534 13.2958 8.27186 12.8893 9.11006C12.4828 9.94825 12.4033 10.9079 12.6666 11.8015C12.9298 12.6951 13.5167 13.4585 14.3126 13.9425C15.1086 14.4265 16.0564 14.5964 16.9709 14.4189C17.8854 14.2415 18.7009 13.7295 19.2581 12.9829C19.8153 12.2363 20.0741 11.3088 19.984 10.3816C19.8938 9.45441 19.4613 8.59411 18.7708 7.96879C18.0803 7.34346 17.1815 6.99804 16.2499 7ZM3.74989 13.25C3.39902 13.2507 3.05193 13.1775 2.7312 13.0352C2.41048 12.8929 2.1233 12.6847 1.88834 12.4241C1.65338 12.1635 1.47591 11.8564 1.36747 11.5227C1.25903 11.189 1.22204 10.8362 1.25892 10.4872C1.2958 10.1383 1.40571 9.80105 1.58152 9.4974C1.75732 9.19374 1.99507 8.93049 2.27932 8.72477C2.56356 8.51906 2.88792 8.37547 3.2313 8.30337C3.57469 8.23126 3.92941 8.23224 4.27239 8.30625L3.19114 10.4706L3.19677 10.4731C3.15173 10.5586 3.12712 10.6534 3.12489 10.75C3.12394 10.8906 3.17078 11.0274 3.25774 11.1379C3.34469 11.2485 3.46661 11.3262 3.60351 11.3584C3.74042 11.3905 3.88419 11.3753 4.01128 11.315C4.13836 11.2548 4.24123 11.1532 4.30302 11.0269L4.30927 11.0294L5.38614 8.875C5.77135 9.20746 6.04546 9.64996 6.17156 10.1429C6.29767 10.6359 6.26971 11.1557 6.09146 11.6323C5.91322 12.1089 5.59323 12.5194 5.17458 12.8087C4.75594 13.0979 4.25873 13.2519 3.74989 13.25ZM7.44364 10.125C7.27991 9.16335 6.7479 8.30334 5.96052 7.7275L7.00927 5.62875L8.50802 10.125H7.44364ZM9.60489 9.4625L8.15864 5.125H13.0743L9.60489 9.4625ZM16.2499 13.25C15.6871 13.2518 15.1403 13.0631 14.6985 12.7146C14.2566 12.3661 13.9457 11.8783 13.8163 11.3306C13.6869 10.7829 13.7466 10.2075 13.9858 9.69812C14.225 9.18871 14.6296 8.77525 15.1336 8.525L15.6386 10.8812L15.6511 10.8787C15.6787 11.0177 15.7533 11.1429 15.8624 11.2332C15.9714 11.3236 16.1083 11.3737 16.2499 11.375C16.4157 11.375 16.5746 11.3092 16.6918 11.1919C16.809 11.0747 16.8749 10.9158 16.8749 10.75C16.8709 10.7063 16.8623 10.6631 16.8493 10.6213L16.8618 10.6188L16.3555 8.26062C17.0094 8.28587 17.6272 8.56691 18.0758 9.04322C18.5245 9.51953 18.7682 10.153 18.7543 10.8072C18.7405 11.4614 18.4702 12.084 18.0018 12.5409C17.5334 12.9978 16.9042 13.2525 16.2499 13.25Z" fill="#F0F0F0"/>
</svg>
