<svg width="18" height="18" viewBox="0 0 18 18" fill="none" xmlns="http://www.w3.org/2000/svg">
<path d="M16.5013 4.0188C16.5038 3.89714 16.4955 2.79797 15.418 1.73964C14.3571 0.697969 13.2871 0.667969 13.168 0.667969H4.8313C4.63214 0.667969 3.58714 0.720469 2.57464 1.75297C1.5313 2.8163 1.5013 3.8838 1.5013 4.0013V6.5013H0.667969V9.0013H1.5013V14.0013C1.5013 14.613 1.83964 15.1455 2.33464 15.4355V16.5013C2.33464 16.7223 2.42243 16.9343 2.57871 17.0906C2.73499 17.2468 2.94695 17.3346 3.16797 17.3346H4.0013C4.22232 17.3346 4.43428 17.2468 4.59056 17.0906C4.74684 16.9343 4.83464 16.7223 4.83464 16.5013V15.668H13.168V16.5013C13.168 16.7223 13.2558 16.9343 13.412 17.0906C13.5683 17.2468 13.7803 17.3346 14.0013 17.3346H14.8346C15.0556 17.3346 15.2676 17.2468 15.4239 17.0906C15.5802 16.9343 15.668 16.7223 15.668 16.5013V15.4371C15.9208 15.2921 16.1309 15.0831 16.2772 14.831C16.4235 14.5789 16.5008 14.2928 16.5013 14.0013V9.0013H17.3346V6.5013H16.5013V4.0188ZM6.5013 2.33464H11.5013V4.0013H6.5013V2.33464ZM4.41797 14.0013C4.08634 14.0012 3.76833 13.8693 3.53391 13.6348C3.29949 13.4002 3.16786 13.0821 3.16797 12.7505C3.16808 12.4188 3.29993 12.1008 3.5345 11.8664C3.76908 11.632 4.08717 11.5004 4.4188 11.5005C4.75043 11.5006 5.06844 11.6324 5.30286 11.867C5.53728 12.1016 5.66891 12.4197 5.6688 12.7513C5.66869 13.0829 5.53685 13.4009 5.30227 13.6354C5.06769 13.8698 4.7496 14.0014 4.41797 14.0013ZM8.16797 9.83463H3.16797V5.66797H8.16797V9.83463ZM13.5846 14.0013C13.253 14.0012 12.935 13.8693 12.7006 13.6348C12.4662 13.4002 12.3345 13.0821 12.3346 12.7505C12.3347 12.4188 12.4666 12.1008 12.7012 11.8664C12.9357 11.632 13.2538 11.5004 13.5855 11.5005C13.9171 11.5006 14.2351 11.6324 14.4695 11.867C14.7039 12.1016 14.8356 12.4197 14.8355 12.7513C14.8354 13.0829 14.7035 13.4009 14.4689 13.6354C14.2344 13.8698 13.9163 14.0014 13.5846 14.0013ZM14.8346 9.83463H9.83463V5.66797H14.8346V9.83463Z" fill="#F0F0F0"/>
</svg>
