
    <svg width="20" height="10" viewBox="0 0 20 10" fill="none" id="svg_car" xmlns="http://www.w3.org/2000/svg">
        <path d="M13.332 0L15.832 3.33333H17.4987C18.4237 3.33333 19.1654 4.075 19.1654 5V7.5H17.4987C17.4987 8.16304 17.2353 8.79893 16.7665 9.26777C16.2976 9.73661 15.6617 10 14.9987 10C14.3357 10 13.6998 9.73661 13.2309 9.26777C12.7621 8.79893 12.4987 8.16304 12.4987 7.5H7.4987C7.4987 8.16304 7.23531 8.79893 6.76647 9.26777C6.29762 9.73661 5.66174 10 4.9987 10C4.33566 10 3.69977 9.73661 3.23093 9.26777C2.76209 8.79893 2.4987 8.16304 2.4987 7.5H0.832031V5C0.832031 4.075 1.5737 3.33333 2.4987 3.33333L4.9987 0H13.332ZM8.7487 1.25H5.6237L4.0487 3.33333H8.7487V1.25ZM9.9987 1.25V3.33333H14.282L12.707 1.25H9.9987ZM4.9987 6.25C4.66718 6.25 4.34923 6.3817 4.11481 6.61612C3.88039 6.85054 3.7487 7.16848 3.7487 7.5C3.7487 7.83152 3.88039 8.14946 4.11481 8.38388C4.34923 8.6183 4.66718 8.75 4.9987 8.75C5.33022 8.75 5.64816 8.6183 5.88258 8.38388C6.117 8.14946 6.2487 7.83152 6.2487 7.5C6.2487 7.16848 6.117 6.85054 5.88258 6.61612C5.64816 6.3817 5.33022 6.25 4.9987 6.25ZM14.9987 6.25C14.6672 6.25 14.3492 6.3817 14.1148 6.61612C13.8804 6.85054 13.7487 7.16848 13.7487 7.5C13.7487 7.83152 13.8804 8.14946 14.1148 8.38388C14.3492 8.6183 14.6672 8.75 14.9987 8.75C15.3302 8.75 15.6482 8.6183 15.8826 8.38388C16.117 8.14946 16.2487 7.83152 16.2487 7.5C16.2487 7.16848 16.117 6.85054 15.8826 6.61612C15.6482 6.3817 15.3302 6.25 14.9987 6.25Z" fill="#3F07E2"/>
    </svg>