<svg width="19" height="19" viewBox="0 0 19 19" fill="none" xmlns="http://www.w3.org/2000/svg">
<path d="M18.75 5.25V7.75H17.5V17.75C17.5 17.9258 17.4674 18.0885 17.4023 18.2383C17.3372 18.388 17.2493 18.5182 17.1387 18.6289C17.028 18.7396 16.8945 18.8307 16.7383 18.9023C16.582 18.974 16.4193 19.0065 16.25 19H15C14.8242 19 14.6615 18.9674 14.5117 18.9023C14.362 18.8372 14.2318 18.7493 14.1211 18.6387C14.0104 18.528 13.9193 18.3945 13.8477 18.2383C13.776 18.082 13.7435 17.9193 13.75 17.75H5C5 17.9258 4.96745 18.0885 4.90234 18.2383C4.83724 18.388 4.74935 18.5182 4.63867 18.6289C4.52799 18.7396 4.39453 18.8307 4.23828 18.9023C4.08203 18.974 3.91927 19.0065 3.75 19H2.5C2.32422 19 2.16146 18.9674 2.01172 18.9023C1.86198 18.8372 1.73177 18.7493 1.62109 18.6387C1.51042 18.528 1.41927 18.3945 1.34766 18.2383C1.27604 18.082 1.24349 17.9193 1.25 17.75V7.75H0V5.25H1.25V2.125C1.25 1.86458 1.29883 1.62044 1.39648 1.39258C1.49414 1.16471 1.6276 0.966146 1.79688 0.796875C1.96615 0.627604 2.16471 0.494141 2.39258 0.396484C2.62044 0.298828 2.86458 0.25 3.125 0.25H15.625C15.8854 0.25 16.1296 0.298828 16.3574 0.396484C16.5853 0.494141 16.7839 0.627604 16.9531 0.796875C17.1224 0.966146 17.2559 1.16471 17.3535 1.39258C17.4512 1.62044 17.5 1.86458 17.5 2.125V5.25H18.75ZM2.5 10.25H8.75V5.25H2.5V10.25ZM5 13.375C5 13.2057 4.93815 13.0592 4.81445 12.9355C4.69076 12.8118 4.54427 12.75 4.375 12.75C4.20573 12.75 4.05924 12.8118 3.93555 12.9355C3.81185 13.0592 3.75 13.2057 3.75 13.375V14H5V13.375ZM16.25 15.25H2.5V16.5H16.25V15.25ZM15 14V13.375C15 13.2057 14.9382 13.0592 14.8145 12.9355C14.6908 12.8118 14.5443 12.75 14.375 12.75C14.2057 12.75 14.0592 12.8118 13.9355 12.9355C13.8118 13.0592 13.75 13.2057 13.75 13.375V14H15ZM16.25 5.25H10V10.25H16.25V5.25Z" fill="#FB5555"/>
</svg>
