<svg width="20" height="17" viewBox="0 0 20 17" fill="none" xmlns="http://www.w3.org/2000/svg">
<path d="M6.96953 6.33333L9.33203 4.66667H12.242L11.332 2.16667H9.16537V0.5H12.4987L13.4087 3H16.6654V5.5H14.3187L15.532 8.835C16.4527 8.86427 17.3303 9.23135 17.9977 9.86624C18.665 10.5011 19.0753 11.3594 19.1504 12.2775C19.2255 13.1955 18.96 14.1091 18.4047 14.8439C17.8494 15.5788 17.043 16.0836 16.1394 16.2621C15.2357 16.4405 14.298 16.2801 13.505 15.8115C12.7121 15.3429 12.1193 14.5988 11.8397 13.7212C11.5602 12.8435 11.6135 11.8937 11.9893 11.0528C12.3652 10.2119 13.0375 9.53871 13.8779 9.16167L12.8479 6.33333H12.0587L10.7404 11.225L8.30287 12.1158C8.32231 12.2692 8.33203 12.425 8.33203 12.5833C8.33182 13.2708 8.14265 13.9449 7.78519 14.5321C7.42773 15.1193 6.91573 15.597 6.30516 15.9129C5.69458 16.2287 5.00892 16.3707 4.32312 16.3233C3.63731 16.2758 2.97775 16.0407 2.41651 15.6437C1.85527 15.2468 1.41395 14.7031 1.14079 14.0723C0.86763 13.4414 0.773134 12.7476 0.867631 12.0667C0.962127 11.3858 1.24198 10.744 1.67661 10.2113C2.11123 9.67872 2.6839 9.27582 3.33203 9.04667V8H1.66537V6.33333H6.96953ZM4.58203 14.6667C5.13457 14.6667 5.66447 14.4472 6.05517 14.0565C6.44587 13.6658 6.66537 13.1359 6.66537 12.5833C6.66537 12.0308 6.44587 11.5009 6.05517 11.1102C5.66447 10.7195 5.13457 10.5 4.58203 10.5C4.0295 10.5 3.49959 10.7195 3.10889 11.1102C2.71819 11.5009 2.4987 12.0308 2.4987 12.5833C2.4987 13.1359 2.71819 13.6658 3.10889 14.0565C3.49959 14.4472 4.0295 14.6667 4.58203 14.6667ZM15.4154 14.6667C15.9679 14.6667 16.4978 14.4472 16.8885 14.0565C17.2792 13.6658 17.4987 13.1359 17.4987 12.5833C17.4987 12.0308 17.2792 11.5009 16.8885 11.1102C16.4978 10.7195 15.9679 10.5 15.4154 10.5C14.8628 10.5 14.3329 10.7195 13.9422 11.1102C13.5515 11.5009 13.332 12.0308 13.332 12.5833C13.332 13.1359 13.5515 13.6658 13.9422 14.0565C14.3329 14.4472 14.8628 14.6667 15.4154 14.6667Z" fill="#D533B2"/>
</svg>
