<svg width="20" height="16" viewBox="0 0 20 16" fill="none" xmlns="http://www.w3.org/2000/svg">
<path d="M5.83203 15.5C5.13759 15.5 4.54731 15.2569 4.0612 14.7708C3.57509 14.2847 3.33203 13.6944 3.33203 13H0.832031V7.16667H9.9987V2.16667H13.332V0.5H15.832V2.16667H17.4779L19.1654 7.14583V13H16.6654C16.6654 13.6944 16.4223 14.2847 15.9362 14.7708C15.4501 15.2569 14.8598 15.5 14.1654 15.5C13.4709 15.5 12.8806 15.2569 12.3945 14.7708C11.9084 14.2847 11.6654 13.6944 11.6654 13H8.33203C8.33203 13.6944 8.08898 14.2847 7.60286 14.7708C7.11675 15.2569 6.52648 15.5 5.83203 15.5ZM5.83203 13.8333C6.06814 13.8333 6.2662 13.7533 6.4262 13.5933C6.5862 13.4333 6.66592 13.2356 6.66536 13C6.66481 12.7644 6.58481 12.5667 6.42536 12.4067C6.26592 12.2467 6.06814 12.1667 5.83203 12.1667C5.59592 12.1667 5.39814 12.2467 5.2387 12.4067C5.07925 12.5667 4.99925 12.7644 4.9987 13C4.99814 13.2356 5.07814 13.4336 5.2387 13.5942C5.39925 13.7547 5.59703 13.8344 5.83203 13.8333ZM14.1654 13.8333C14.4015 13.8333 14.5995 13.7533 14.7595 13.5933C14.9195 13.4333 14.9993 13.2356 14.9987 13C14.9981 12.7644 14.9181 12.5667 14.7587 12.4067C14.5993 12.2467 14.4015 12.1667 14.1654 12.1667C13.9293 12.1667 13.7315 12.2467 13.572 12.4067C13.4126 12.5667 13.3326 12.7644 13.332 13C13.3315 13.2356 13.4115 13.4336 13.572 13.5942C13.7326 13.7547 13.9304 13.8344 14.1654 13.8333ZM11.6654 7.16667H17.4154L16.2904 3.83333H11.6654V7.16667ZM0.832031 6.33333V5.08333H1.66536V3.41667H0.832031V2.16667H9.16537V3.41667H8.33203V5.08333H9.16537V6.33333H0.832031ZM2.91536 5.08333H4.3737V3.41667H2.91536V5.08333ZM5.6237 5.08333H7.08203V3.41667H5.6237V5.08333Z" fill="#FFA500"/>
</svg>
