<svg width="20" height="14" viewBox="0 0 20 14" fill="none" xmlns="http://www.w3.org/2000/svg">
<path d="M16.6654 3.66536H14.1654V0.332031H2.4987C1.5737 0.332031 0.832031 1.0737 0.832031 1.9987V11.1654H2.4987C2.4987 12.5487 3.61536 13.6654 4.9987 13.6654C6.38203 13.6654 7.4987 12.5487 7.4987 11.1654H12.4987C12.4987 12.5487 13.6154 13.6654 14.9987 13.6654C16.382 13.6654 17.4987 12.5487 17.4987 11.1654H19.1654V6.9987L16.6654 3.66536ZM4.9987 12.4154C4.30703 12.4154 3.7487 11.857 3.7487 11.1654C3.7487 10.4737 4.30703 9.91536 4.9987 9.91536C5.69036 9.91536 6.2487 10.4737 6.2487 11.1654C6.2487 11.857 5.69036 12.4154 4.9987 12.4154ZM10.832 6.16536H4.16536V4.4987H10.832V6.16536ZM14.9987 12.4154C14.307 12.4154 13.7487 11.857 13.7487 11.1654C13.7487 10.4737 14.307 9.91536 14.9987 9.91536C15.6904 9.91536 16.2487 10.4737 16.2487 11.1654C16.2487 11.857 15.6904 12.4154 14.9987 12.4154ZM14.1654 6.9987V4.91536H16.2487L17.882 6.9987H14.1654Z" fill="#F0F0F0"/>
</svg>
